<svg xmlns="http://www.w3.org/2000/svg" viewBox="0 0 421.7 176.6"><defs><style>.cls-11{fill:#be8747}.cls-12{fill:#2da84b}</style></defs><g id="Layer_1"><path d="M250.8 126.6c-2.2 2.4-4.4 4.7-6.7 7.2h-65.5l-33.4-33.4V33.1c10.7-10.9 21.5-22 32.5-33.1h65.9c11.2 11.1 22.3 22.2 33.5 33.3v67.2c-3.7 3.7-7.5 7.7-11.5 11.3 0 0-.2-.2-.3-.2.6-1.1-.1-2-.6-2.9-4.1-7.7-8.3-15.5-12.3-23.2-1.2-2.4-2.7-4.7-3.7-7.6H266V37.8l-26.4-26.1c-.5 0-1.3 0-2.1-.1-.4-.7-1.1-.4-1.7-.4h-49.7c-.8 0-1.8-.4-2.4.5-1.4 1.9-3.3 3.1-4.9 4.8-7.5 7.4-14.9 15-22.5 22.6v57.8l26.5 25.9h39.8V78.9h-21.5v21.3h-22.4V33.8h65.1v22.6h-31.2c.2.5.2.8.3 1 3.7 7 7.4 13.9 11.1 20.9 7 13.2 14 26.3 21 39.5 1.3 2.5 2.6 5 3.9 7.4.3.6.5 1.7 1.7 1 .1.1.2.2.3.4Z" class="cls-11"/><path d="M421.7 100.1H286.3V33.8h135.4V100Zm-22.4-13.7c-6.8-2-13.2-4.9-18.9-10h15.3c1.2 0 2.5 0 3.3-1.2.3-.9.3-1.7-.8-2.6h-19.7c0-1.2-.3-2.1.3-3.1h16.1c1.1 0 2.3.2 3-1.1.2-1 0-1.9-1.2-2.7h-18.1c-.1-.9-.3-1.7.3-2.8h18c.9-1.4 1-2.4-.5-3.6H386c.5-1.5 1.2-2.5 2-3.5 3.7-.2 7.4.1 11.1-.3.6-1 .9-1.9-.1-3h-9.6c.4-2.8 2.9-4.8 2.3-7.7-2.2-1-2.8-.9-3.6.9-1 2.2-2 4.3-3.4 6.3-.8-.1-1.5.2-2.4-.3-.4-2.8.3-5.7-.6-8.4-1.2-.6-2-.5-3.1.7v7.8c-1.6.1-2.9.3-4 0-.8-3 .8-6.1-1-8.7-1.1-.2-1.8-.2-2.5.8-.7 2.5 0 5.2-.5 7.9-1 .3-1.8.2-2.8 0-1.5-2.5-2.6-5.2-4.5-7.2-1.1-.5-1.8-.2-2.6.3-1 2.9 2.3 4.4 2.5 7.1H354c-1.4 1.3-1.8 2.4 0 3.7h10.7c.4 1.3 1.5 2.2 1.6 3.8h-11.8c-1.2 1.4-1.3 2.4.3 3.7h19.6c-.3 1 .2 1.8-.6 2.6h-18.4c-1 .8-1.3 1.6-1.1 2.6.7 1.2 1.8 1.1 2.8 1.1h13.7c1.1 0 2.3-.2 3.5.3-.3.9.3 1.9-.4 2.8-6.7.2-13.4-.3-19.9.1-.9 1.5-.6 2.6.7 3.8h17.4c-5.8 4.9-12.1 7.7-18.7 9.9q-.2 2.1 1.2 3.2c7.4-1.7 13.9-5.3 20.1-10.1-.4 3.8 0 7.3.2 10.7 1 .8 2 .9 2.9.2 1.1-3.5.6-7.1.8-10.9 6.5 3.9 12.5 8.4 19.7 10.1 1-1.1 1.3-1.9 1-3.3Zm-50.7-20.2c.6-1.4.4-2.4-.6-3.5h-12.5c3.8-4.7 6.8-9.5 9.5-14.5-.8-1.2-1.4-2.1-2.9-1.7-.2.2-.5.5-.8.9-2.7 3.9-5.1 8-8.1 11.7-.9 1.1-.8 2.3-.3 3.7-2.2-.1-4.2.3-6.3-.3V44c-.7-.7-1.3-1.1-2-1.1-1.6.4-1.6 1.6-1.6 2.9v15c0 .7.3 1.4-.4 2-6.7.2-13.3-.3-19.9.2-1.1 1.4-.9 2.5.4 3.7h18.4c-4.8 6.4-10.3 11.6-16.8 15.7-.9.6-1.9.9-2.1 2.1.8 2.5 1.6 2.9 3.9 1.4 5.7-3.6 10.7-8 15.2-13 .5-.6.9-1.5 1.8-1.6v18.8c.8 1.1 1.9 1.4 3.5.1V70.6c5.9 6.9 12.3 12.6 19.8 16.5 1.3-.3 1.9-1 2.2-2-.3-1.3-1.3-1.8-2.3-2.4-5.2-3.4-10.1-7.4-14.3-12-1-1.1-2.1-2.2-2.7-3.8 6.5 0 12.7 0 19-.7Zm-30.9-6.7c-2.5-4.2-5.3-8.2-8.2-12-.9-.3-1.7-.4-2.4 0-1.1.8-1 1.8-.4 2.6 2.6 3.8 5.3 7.6 7.8 11.3 1.6.3 2.6-.2 3.1-2ZM136.6 33.8v66.1H0V33.8zM87 65.9c-.2.6.2 1.4-.4 2-.9 0-1.9-.2-2.9.6-2 5.7-4.8 11.2-8.2 16.5-.6.9-1 1.9-.4 2.9.8.8 1.7.8 2.8.2 3.3-4.1 5.5-8.9 7.9-13.6.7 4.9-3 8-4.8 11.7.1 1.5.8 2.1 2 2.3 1.4-.3 2.2-1.4 3-2.4 3.4-4.9 4.7-10.3 4.8-16.1.1-6 0-12 0-17.9 0-.9-.3-1.9.5-2.8h11.6c-.1 1.1.2 2-.3 3-1.8 0-3.7.1-5.5 0-2.2-.2-3.7.6-4.7 2.5v18.6c.5.9 1.1 1.6 2.1 2 .7 0 1.6 0 2.7.1-2.2 3.7-4.6 7-7.8 9.8-1.7 1.5-1.7 1.8-.7 3.7 1 .3 1.9.3 2.7-.4l2.4-2.1c.4 2.1.4 2.1 2 2.9 1.9.9 4 1.4 6.1 1.3 2.5-.1 5.1-1.9 4.8-5.1-.3-3.1 0-6.3 0-9.5 0-.3 0-.7.1-1.1h1.6c.3 1.7 8 13.1 9.5 14 .6-.4 1.5-.5 1.9-1.4 0-.2.1-.6 0-.9-1.7-4.2-4.7-7.8-7.2-11.6 4.3-.6 5.1-1.6 5.1-5.9V56.3c0-2.9-1.2-4.1-4.2-4.1h-6.8c0-1.2-.2-2.1.2-3.2h12.3q1.6-1.7.3-3.7H90.6c-1.5 0-2.4 1-3 2.2-.5.9-.4 1.9-.6 2.9-3.3-1.9-5.7-5.3-9.6-5.8q-1.1 1.3-1.2 2.9c3.6 2.2 6.7 5.3 11 7.1v9.6c-3.5-2.3-6.7-4.9-10.3-6.6-1.5 0-2 .9-2.3 2.5 3.2 2.5 6.9 4.7 10.5 6.9 1 0 1.4-1.1 2.1-1.2Zm-17.7-8.5c-.3-.2-.5-.3-.8-.4-6.6-2.1-12.4-5.6-17.6-10.3-.9-.8-1.8-1.6-2.9-2.3-2.2-1.4-3.8-1.2-5.7.6-1.8 1.7-3.7 3.2-5.7 4.7-4.4 3.1-9.3 5.2-14.4 6.7-.6 1.2-.9 2.2.3 3.1 1.8.7 3.4-.3 5.2-.7 0 1-.2 2.1 1.3 3h14.1c0 2 .2 3.7-.3 5.4-6.9.3-13.8-.5-20.7.5-.3 1.1-.5 2.1.7 3.1H29c1.3 5 4.6 9.1 5.6 14.2H22.9c-1.3 1.4-1.2 2.5-.1 3.6.3 0 .6.2.8.2h42.8c.8 0 1.8.1 2.5-.8.3-.9.4-1.8-.6-2.8-3.7-.5-7.6.1-11.6-.5 2-4.8 4.9-8.9 5.8-13.9 1.9-.3 4 .2 5.9-.3.9-1.2 1-2.3-.6-3.6h-21c.1-1.9-.3-3.6.3-5.3h13.4c1.4-.6 1.4-1.8 1.9-2.7 2 .5 3.6 1.8 5.6 1.6 1.4-.6 1.8-1.7 1.2-3.2Z" style="fill:#29a74a"/><path d="M265.6 168.8c0 1.8-1.4 3-3.2 3-1.7 0-3.1-1.4-3.1-3.1 0-1.8 1.5-3.3 3.4-3.2 1.7 0 3 1.5 2.9 3.3m-124.7-1.3v2.3c-.5.9-1.1 1.5-1.9 1.9-2.6.1-3.7-.4-4.2-2.2-.4-1.4.2-2.8 1.5-3.6 1.6-.9 2.7-.6 4.6 1.5Z" style="fill:#96aa8f"/><path d="m251.4 126.1-.5.5c-.1-.1-.2-.2-.3-.4l.5-.5.3.3Z" class="cls-11"/><path d="M251.9 125.6c0 .3-.3.5-.5.5l-.3-.3.5-.5zm.5-.6c0 .3-.3.5-.5.5l-.3-.3.5-.5z" class="cls-11"/><path d="M252.9 124.5c0 .3-.3.5-.5.5l-.3-.3.5-.5zm.6-.5c0 .3-.3.5-.5.5l-.3-.3.5-.5zm.5-.6c0 .3-.2.5-.5.5l-.3-.3.5-.5zm1.1-1c0 .3-.2.5-.5.5l-.3-.3.5-.5z" class="cls-11"/><path d="M255.6 121.9c0 .3-.3.5-.5.5l-.3-.3.5-.5zm.5-.6c0 .3-.3.5-.5.5l-.3-.3.5-.5zM256.6 120.8c0 .3-.3.5-.5.5l-.3-.3.5-.5zm.6-.5c0 .3-.3.5-.5.5l-.3-.3.5-.5z" class="cls-11"/><path d="M257.7 119.8c0 .3-.3.5-.5.5l-.3-.3.5-.5zm.5-.6c0 .3-.3.5-.5.5l-.3-.3.5-.5zm.6-.5c0 .3-.3.5-.5.5l-.3-.3c.2-.2.4-.3.6-.5l.3.3Z" class="cls-11"/><path d="M259.3 118.2c0 .3-.3.5-.5.5l-.3-.3.5-.5zm.5-.6c0 .3-.3.5-.5.5l-.3-.3.5-.5zM260.3 117.1c0 .3-.3.5-.5.5l-.3-.3.5-.5zm.6-.5c0 .3-.3.5-.5.5l-.3-.3.5-.5z" class="cls-11"/><path d="M261.4 116.1c0 .3-.3.5-.5.5l-.3-.3.5-.5zm.5-.6c0 .3-.3.5-.5.5l-.3-.3.5-.5zm.6-.5c0 .3-.3.5-.5.5l-.3-.3.5-.5z" class="cls-11"/><path d="M263 114.5c0 .3-.3.5-.5.5l-.3-.3.5-.5z" class="cls-11"/><path d="M263.5 114c0 .3-.3.5-.5.5l-.3-.3.5-.5zm.5-.6c0 .3-.3.5-.5.5l-.3-.3.5-.5z" class="cls-11"/><path d="M264.5 112.9c-.2.2-.3.4-.5.6l-.3-.3c.2-.2.3-.4.5-.5l.3.3Zm.5-.6c-.2.2-.3.4-.5.6l-.3-.3c.2-.2.3-.4.5-.5l.2.2Zm.6-.5c0 .3-.2.5-.5.5l-.2-.2.5-.5s.2.2.3.2Zm-11.1 11.1c0 .3-.3.5-.5.5l-.3-.3.5-.5z" class="cls-11"/><path d="m254.2 122.6-.5.5-.5.5-.5.5-.5.5-.5.5-.5.5-.5.5c-1.1.7-1.4-.4-1.7-1-1.3-2.5-2.6-5-3.9-7.4-7-13.2-14-26.3-21-39.5-3.7-7-7.4-13.9-11.1-20.9-.1-.2-.2-.5-.3-1h31.2V33.7h-65.1v66.1h22.4V78.5h21.5v43.9h-39.8c-8.8-8.6-17.6-17.3-26.5-25.9V38.7c7.6-7.7 15-15.2 22.5-22.6 1.6-1.6 3.5-2.9 4.9-4.8h53.9c.8 0 1.6 0 2.1.1l26.4 26.1v40.1h-17.3c1 2.9 2.4 5.2 3.7 7.6 4.1 7.8 8.2 15.5 12.3 23.2.5.9 1.2 1.8.6 2.9l-.5.5c-.2.2-.3.4-.5.5-.2.2-.3.4-.5.5l-.5.5-.5.5-.5.5-.5.5-.5.5-.5.5-.5.5-.5.5-.5.5-.5.5c-.2.2-.4.3-.6.5l-.5.5-.5.5-.5.5-.5.5-.5.5-.5.5-.5.5Z" style="fill:#05673b"/><path d="M237.5 11.5h-53.9c.7-.9 1.6-.5 2.4-.5h49.7c.6 0 1.3-.2 1.7.4Z" style="fill:#b0b195"/><path d="M399.3 86.4c.3 1.4 0 2.3-1 3.3-7.2-1.8-13.2-6.2-19.7-10.1-.2 3.8.3 7.4-.8 10.9-.9.7-1.8.6-2.9-.2-.3-3.4-.6-6.9-.2-10.7-6.2 4.7-12.7 8.4-20.1 10.1q-1.4-1.2-1.2-3.2c6.6-2.2 13-5 18.7-9.9h-17.4c-1.3-1.2-1.6-2.3-.7-3.8 6.6-.4 13.3.1 19.9-.1.7-.9.1-1.9.4-2.8-1.2-.5-2.4-.3-3.5-.3h-13.7c-1.1 0-2.2.2-2.8-1.1-.3-1 0-1.8 1.1-2.6h18.4c.8-.8.3-1.6.6-2.6h-19.6c-1.6-1.2-1.5-2.3-.3-3.7h11.8c-.1-1.6-1.3-2.4-1.6-3.8H354c-1.7-1.3-1.4-2.4 0-3.7h9.2c-.3-2.7-3.6-4.2-2.5-7.1.8-.5 1.5-.7 2.6-.3 1.9 2 3.1 4.8 4.5 7.2 1 .2 1.8.3 2.8 0 .5-2.7-.2-5.4.5-7.9.7-.9 1.4-1 2.5-.8 1.8 2.6.2 5.7 1 8.7 1.1.3 2.4.2 4 0v-7.8c1.1-1.2 2-1.3 3.1-.7 1 2.7.3 5.6.6 8.4.8.5 1.6.1 2.4.3 1.4-2 2.4-4.1 3.4-6.3.8-1.9 1.3-2 3.6-.9.6 2.9-1.9 4.9-2.3 7.7h9.6c1 1.1.7 2 .1 3-3.7.4-7.4 0-11.1.3-.8 1-1.5 2-2 3.5h10.4c1.6 1.1 1.4 2.1.5 3.6h-18c-.6 1.1-.4 1.8-.3 2.8h18.1c1.2.8 1.4 1.7 1.2 2.7-.6 1.4-1.9 1.1-3 1.1h-16.1c-.6.9-.2 1.9-.3 3.1h19.7c1.1.9 1.1 1.7.8 2.6-.8 1.2-2.1 1.2-3.3 1.2h-15.3c5.7 5.1 12 7.9 18.9 10ZM383.6 56H369c.4 1.4 1.1 2.5 1.8 3.5h10.8c.7-1.1 1.3-2.2 2-3.5" style="fill:#fafcf8"/><path d="M348.6 66.2c-6.3.8-12.5.8-19 .7.6 1.6 1.7 2.7 2.7 3.8 4.2 4.7 9 8.6 14.3 12 1 .6 2 1.1 2.3 2.4-.3 1-.8 1.7-2.2 2-7.5-3.9-13.9-9.6-19.8-16.5v19.6c-1.6 1.2-2.7 1-3.5-.1V71.3c-.9 0-1.2 1-1.8 1.6-4.5 5-9.5 9.4-15.2 13-2.3 1.4-3.1 1.1-3.9-1.4.2-1.2 1.3-1.6 2.1-2.1 6.5-4.1 12.1-9.3 16.8-15.7H303c-1.2-1.2-1.5-2.3-.4-3.7 6.6-.5 13.3 0 19.9-.2.7-.6.4-1.3.4-2v-15c0-1.3 0-2.5 1.6-2.9.7 0 1.3.4 2 1.1v18.5c2.1.6 4.1.2 6.3.3-.5-1.3-.7-2.5.3-3.7 3-3.7 5.4-7.8 8.1-11.7.2-.4.6-.6.8-.9 1.5-.4 2.1.5 2.9 1.7-2.7 5-5.7 9.8-9.5 14.5h12.5c1 1.1 1.2 2.1.6 3.5Z" style="fill:#fbfdfa"/><path d="M317.7 59.5c-.5 1.8-1.5 2.3-3.1 2-2.6-3.7-5.2-7.5-7.8-11.3-.6-.9-.7-1.8.4-2.6.6-.3 1.4-.2 2.4 0 2.9 3.8 5.7 7.8 8.2 12Z" style="fill:#f7faf5"/><path d="M87 64.3v-9.6c-4.3-1.8-7.4-4.9-11-7.1q0-1.6 1.2-2.9c3.9.5 6.4 3.9 9.6 5.8.2-1 .2-2 .6-2.9.6-1.3 1.5-2.2 3-2.2h28.9q1.4 2-.3 3.7h-12.3c-.4 1-.2 1.9-.2 3.2h6.8c3 0 4.2 1.2 4.2 4.1v12.9c0 4.3-.8 5.2-5.1 5.9 2.5 3.8 5.5 7.3 7.2 11.6.1.3 0 .7 0 .9-.5.9-1.3 1.1-1.9 1.4-1.5-.9-9.2-12.3-9.5-14h-1.6c0 .4-.1.7-.1 1.1 0 3.2-.2 6.3 0 9.5.3 3.2-2.3 5-4.8 5.1-2.2.1-4.2-.3-6.1-1.3-1.5-.7-1.5-.7-2-2.9l-2.4 2.1c-.8.7-1.8.6-2.7.4-1-1.9-1-2.2.7-3.7 3.2-2.7 5.5-6 7.8-9.8-1.1 0-1.9-.1-2.7-.1-.9-.5-1.5-1.1-2.1-2V54.9c.9-1.9 2.5-2.7 4.7-2.5 1.8.1 3.7 0 5.5 0 .5-1 .2-2 .3-3H91.1c-.8.9-.5 1.9-.5 2.8v17.9c-.1 5.8-1.5 11.3-4.8 16.1-.8 1.1-1.6 2.1-3 2.4-1.2-.2-1.9-.8-2-2.3 1.8-3.6 5.5-6.8 4.8-11.7-2.4 4.7-4.7 9.5-7.9 13.6-1.1.6-2 .6-2.8-.2-.5-1.1-.1-2 .4-2.9 3.4-5.2 6.2-10.8 8.2-16.5 1-.9 2-.6 2.9-.6.6-.6.2-1.4.4-2v-1.6Zm9.1 7.1h17.7v-6H96.1zm-.1-9.9h17.9c0-1.9.2-3.7-.1-5.5H96.1v5.5Zm6.7 24.9V75.5c-.7-.3-1.3-.3-1.9 0-.8 3.9-3.8 6.5-6 9.8 2.7 0 4.9 2.5 7.8 1.1Z" style="fill:#fbfdf9"/><path d="M69.3 57.4c.5 1.6.2 2.6-1.2 3.2-2 .1-3.6-1.1-5.6-1.6-.5.8-.4 2-1.9 2.7H47.2c-.6 1.7-.2 3.3-.3 5.3h21c1.6 1.2 1.5 2.3.6 3.6-2 .5-4 0-5.9.3-.9 5-3.8 9.1-5.8 13.9 4 .6 7.9 0 11.6.5 1 .9.9 1.8.6 2.8-.7.9-1.6.8-2.5.8H23.7c-.3 0-.5-.1-.8-.2-1.1-1.1-1.2-2.2.1-3.6h11.7c-1-5.2-4.3-9.2-5.6-14.2h-6.2c-1.2-1-.9-2-.7-3.1 6.9-1 13.8-.2 20.7-.5.5-1.7.2-3.4.3-5.4H29.1c-1.5-.9-1.2-2-1.3-3-1.8.4-3.4 1.4-5.2.7-1.2-.9-.9-1.9-.3-3.1 5.1-1.5 10-3.6 14.4-6.7 2-1.4 3.9-2.9 5.7-4.7s3.5-2 5.7-.6c1 .7 2 1.5 2.9 2.3 5.1 4.6 11 8.2 17.6 10.3.2 0 .5.2.8.4Zm-9.5.5C54.4 55.1 50 51 45.4 47.2 41 52 36 55.3 30.4 57.9zm-1 12.9H47v13.9h4.6c3.1-4.2 5.2-9 7.2-13.9m-20.3 14c1.4 0 3 .3 4.5-.1v-14c-3.3.2-6.4.4-9.7.6 1.9 4.5 4.6 8.6 5.1 13.5Z" style="fill:#f9fcf8"/><path d="M87 64.3v1.6c-.8.1-1.1 1.1-2.1 1.2-3.6-2.2-7.3-4.4-10.5-6.9.3-1.5.8-2.4 2.3-2.5 3.6 1.7 6.9 4.3 10.3 6.6" style="fill:#f4f9f2"/><path d="M383.6 56c-.8 1.3-1.4 2.3-2 3.5h-10.8c-.7-1-1.3-2.1-1.8-3.5z" class="cls-12"/><path d="M96.1 71.4v-6h17.7v6zm-.1-9.9V56h17.7c.3 1.8.1 3.5.1 5.5H95.9Z" style="fill:#27a74a"/><path d="M102.7 86.4c-3 1.3-5.1-1.1-7.8-1.1 2.2-3.3 5.2-5.9 6-9.8.6-.2 1.2-.2 1.9 0v10.9Z" style="fill:#31a84b"/><path d="M59.8 57.9H30.4C36 55.3 41 52 45.4 47.2c4.6 3.9 9 7.9 14.4 10.7m-1 12.9c-2 4.9-4.1 9.7-7.2 13.9H47V70.8zm-20.3 14c-.5-5-3.2-9-5.1-13.5 3.2-.2 6.4-.4 9.7-.6v14c-1.6.4-3.2.2-4.5.1Z" class="cls-12"/><path d="M2.5 163.4v13.2H-.6v-13.2zm9.8 10c.9.5 2.2.9 3.7.9s2.2-.6 2.2-1.4-.6-1.2-2.4-1.8c-2.3-.7-4-1.8-4-4s2.1-4 5.3-4 2.9.3 3.8.7l-.7 2.5c-.6-.3-1.7-.7-3.1-.7s-2 .6-2 1.3.8 1.2 2.7 1.8c2.5.8 3.8 2 3.8 4s-1.7 4.1-5.7 4.1-3.3-.5-4.1-.9l.7-2.6Zm31.6-3.5c0 4.1-2.9 7-7.2 7s-6.9-2.9-6.9-6.7 2.9-7 7.1-7 7 2.9 7 6.8Zm-10.8.1c0 2.5 1.4 4.4 3.8 4.4s3.7-1.9 3.7-4.4-1.4-4.4-3.7-4.4-3.8 2-3.8 4.5Zm252-6.6v13.2H282v-13.2zm9.7 10c.9.5 2.2.9 3.7.9s2.2-.6 2.2-1.4-.6-1.2-2.4-1.8c-2.3-.7-4-1.8-4-4s2.1-4 5.3-4 2.9.3 3.8.7l-.7 2.5c-.6-.3-1.7-.7-3.1-.7s-2 .6-2 1.3.8 1.2 2.7 1.8c2.5.8 3.8 2 3.8 4s-1.7 4.1-5.7 4.1-3.3-.5-4.1-.9l.7-2.6Zm31.6-3.5c0 4.1-2.9 7-7.2 7s-6.9-2.9-6.9-6.7 2.9-7 7.1-7 7 2.9 7 6.8Zm-10.9.1c0 2.5 1.4 4.4 3.8 4.4s3.7-1.9 3.7-4.4-1.4-4.4-3.7-4.4-3.8 2-3.8 4.5Zm-258.3 4.4h1.3c1.1 0 2.1-.3 2.9-.8.9-.6 1.5-1.4 1.7-2.3-.6.6-1.5.9-2.8.9-2.3 0-4.3-1.5-4.3-4s2.2-4.6 5.1-4.6 5.2 2.6 5.2 5.6-.8 4.5-2.3 5.8c-1.4 1.2-3.2 1.8-5.5 1.8h-1.4v-2.4Zm1.8-6.3c0 1.1.7 2 2 2s1.6-.4 1.9-.9c0-.2.1-.3.1-.5 0-1.3-.5-2.7-2.1-2.7s-2 .9-2 2.2Zm25.7 2.1c0 3.7-1.6 6.7-5.2 6.7s-5.1-2.9-5.1-6.6 1.7-6.6 5.2-6.6 5.1 2.9 5.1 6.6Zm-7.2 0c0 2.9.8 4.3 2.1 4.3s2-1.5 2-4.4-.7-4.3-2-4.3-2.1 1.4-2.1 4.4m25.6 0c0 3.7-1.6 6.7-5.2 6.7s-5.1-2.9-5.1-6.6 1.7-6.6 5.2-6.6 5.1 2.9 5.1 6.6Zm-7.3 0c0 2.9.8 4.3 2.1 4.3s2-1.5 2-4.4-.7-4.3-2-4.3-2.1 1.4-2.1 4.4m307.9 0c0 3.7-1.6 6.7-5.2 6.7s-5.1-2.9-5.1-6.6 1.7-6.6 5.2-6.6 5.1 2.9 5.1 6.6Zm-7.2 0c0 2.9.8 4.3 2.1 4.3s2-1.5 2-4.4-.7-4.3-2-4.3-2 1.4-2 4.4Zm-11.3 0c0 3.7-1.6 6.7-5.2 6.7s-5.1-2.9-5.1-6.6 1.7-6.6 5.2-6.6 5.1 2.9 5.1 6.6Zm-7.2 0c0 2.9.8 4.3 2.1 4.3s2-1.5 2-4.4-.7-4.3-2-4.3-2 1.4-2 4.4Zm44 0c0 3.7-1.6 6.7-5.2 6.7s-5.1-2.9-5.1-6.6 1.7-6.6 5.2-6.6 5.1 2.9 5.1 6.6Zm-7.2 0c0 2.9.8 4.3 2.1 4.3s2-1.5 2-4.4-.7-4.3-2-4.3-2.1 1.4-2.1 4.4m-256.9-6.8v5h5.7v-5h3.1v13.2h-3.1v-5.5h-5.7v5.5h-3.1v-13.2zm20.9 9.7-1.1 3.5h-3.3l4.4-13.2h4.2l4.6 13.2h-3.5l-1.2-3.5h-4.3Zm3.8-2.3-1-2.8c-.3-.8-.5-1.7-.7-2.4-.2.7-.4 1.6-.6 2.4l-.9 2.8h3.3Zm25.1 5.4c-.6.3-2 .7-3.8.7-5 0-7.6-2.9-7.6-6.7s3.4-7 7.9-7 3.1.3 3.7.7l-.7 2.4c-.7-.3-1.7-.6-3-.6-2.7 0-4.7 1.5-4.7 4.3s1.7 4.3 4.7 4.3 2.2-.2 2.9-.5l.5 2.4Zm19.3 0c-.6.3-2 .7-3.8.7-5 0-7.6-2.9-7.6-6.7s3.4-7 7.9-7 3.1.3 3.7.7l-.7 2.4c-.7-.3-1.7-.6-3-.6-2.7 0-4.7 1.5-4.7 4.3s1.7 4.3 4.7 4.3 2.2-.2 2.9-.5l.5 2.4Zm8.8-12.7c1-.2 2.4-.3 4.5-.3s3.3.4 4.2 1.1c.9.6 1.5 1.8 1.5 3.1s-.4 2.4-1.2 3.1c-1.1 1-2.7 1.4-4.7 1.4h-1.2v4.7h-3.1zm3.1 6h1.2c1.7 0 2.8-.8 2.8-2.1s-1-1.9-2.6-1.9h-1.4v3.8Zm-123-2.9-2.5 1.2-.5-2.3 3.5-1.6h2.5v12.8h-3v-10Zm222.1 10v-1.8l1.8-1.4c3.2-2.6 4.5-4 4.6-5.3 0-1-.6-1.9-2.2-1.9s-2.3.6-3 1.2l-1-2.2c1.1-.8 2.7-1.5 4.6-1.5 2.9 0 4.7 1.6 4.7 4.1s-1.5 3.7-3.5 5.3l-1.3 1h5.1v2.5zm18.7 0v-1.8l1.8-1.4c3.2-2.6 4.5-4 4.6-5.3 0-1-.6-1.9-2.2-1.9s-2.3.6-3 1.2l-1-2.2c1.1-.8 2.7-1.5 4.6-1.5 2.9 0 4.7 1.6 4.7 4.1s-1.5 3.7-3.5 5.3l-1.3 1h5.1v2.5z" style="fill:#414042"/></g></svg>