<svg xmlns="http://www.w3.org/2000/svg" viewBox="0 0 456.4 144"><path d="M47.4 3.4 1.5 116h30.8L78.2 3.4z" style="fill:#ffb71b"/><path d="M69.9 44.8 99.2 116h33.1L85.7 7zM187.4 35.4c-5.5 0-10.5 1.1-14.9 3.3s-8 5.5-10.7 9.7V37.3h-23.4v78.2h24.1V71.6c0-5.3 1.5-9.6 4.5-12.8q4.5-4.8 12-4.8c7.5 0 7.2 1.2 9.2 3.7 2 2.4 2.9 6.3 2.9 11.6v45.9h24.1V68.1c0-11.1-2.3-19.3-6.9-24.8s-11.5-8.2-20.9-8.2ZM272.7 69.4l-13.2-3c-3.2-.8-5.4-1.7-6.7-2.7s-1.9-2.3-1.9-4 1.1-4.1 3.2-5.4 5-1.9 8.8-1.9c8.1 0 16.2 2.9 24.5 8.6l6.4-15.9c-4.3-3.1-9-5.5-14.3-7.2s-10.8-2.6-16.4-2.6-12.4 1.1-17.6 3.2-9.1 5-11.9 8.8q-4.2 5.55-4.2 12.9c0 7.35 1.8 11 5.3 14.6s9.1 6.2 16.7 7.9l12.8 2.9c3.9.8 6.6 1.8 8.1 2.9 1.4 1.1 2.2 2.6 2.2 4.5s-1 3.8-3.1 5q-3.15 1.8-8.7 1.8c-5.55 0-10.3-.8-15.4-2.4s-9.8-3.8-14-6.7l-6.4 16.6c4.3 3.1 9.5 5.4 15.5 7.1 6 1.6 12.6 2.5 19.8 2.5 10.5 0 18.8-2.2 24.8-6.5s9-10.2 9-17.8-1.8-11.2-5.5-14.9-9.5-6.4-17.5-8.2ZM451 78c-3.7-3.7-9.5-6.4-17.4-8.2l-13.2-3c-3.2-.8-5.4-1.7-6.7-2.7s-1.9-2.3-1.9-4 1.1-4.1 3.2-5.4 5-1.9 8.8-1.9c8.1 0 16.2 2.9 24.5 8.6l6.4-15.9c-4.3-3.1-9-5.5-14.3-7.2s-10.8-2.6-16.4-2.6-12.4 1.1-17.6 3.2-9.2 5-12 8.8q-4.2 5.55-4.2 12.9c0 7.35 1.8 11 5.3 14.6s9.1 6.2 16.6 7.9l12.8 2.9c3.9.8 6.6 1.8 8.1 2.9 1.4 1.1 2.2 2.6 2.2 4.5s-1 3.8-3.1 5q-3.15 1.8-8.7 1.8c-5.55 0-10.3-.8-15.4-2.4s-9.8-3.8-14-6.7l-6.4 16.6c4.4 3.1 9.5 5.4 15.5 7.1 6 1.6 12.6 2.5 19.8 2.5 10.5 0 18.8-2.2 24.8-6.5s9-10.2 9-17.8c0-6.3-1.8-11.2-5.5-14.9ZM319.3 144.5h23.3l43.5-106.7h-23.2l-18.8 45.9-18.8-45.9H302l30.1 74.4z"/></svg>