<svg xmlns="http://www.w3.org/2000/svg" viewBox="0 0 472 212"><defs><style>.cls-1{fill:#9acfed}.cls-2{fill:#9bcfed}</style></defs><g id="Layer_1"><path d="M273 100.4c-.3 1.8.7 3.5 1.5 5.4 1.8 3.8 1.6 4.6-1.8 7-3.7 2.7-7.9 4.7-12.1 6.5-2.6 1.1-3.9-.4-5.2-2.1-4.8-6.1-11.4-7.4-18.2-3.7-2.3 1.2-3.9 3-4.8 5.5-2 5.5-2.6 5.8-8.3 4.4-3.4-.9-6.8-2.1-10.2-3-3.2-.8-4.1-3.3-3.3-5.7 2.6-8-5.1-14.8-11.9-16.1-2.1-.4-4.1.2-6 1.1-4.4 2.1-5.2 1.8-8-2-2.6-3.4-4.5-7.3-6.3-11.1-1.4-2.9.7-4.4 2.6-5.5 4.8-2.8 6.6-7 6.3-12.3-.3-4.6-2.2-8.2-6.6-10.1-.7-.3-1.4-.5-2-.8-4.9-1.9-5.3-2.7-4.1-7.8.8-3.4 1.6-6.9 2.8-10.2 1.1-3 2.7-4 5.9-3.6 8.7 1.2 16.6-5.9 16.1-14.5-.1-2.1-1.4-3.9-1.8-5.9-.4-2.1 0-3.5 1.9-4.7 3.9-2.5 7.9-4.7 12-6.7 1.7-.9 2.8-.5 4.2.7 1.7 1.5 2.5 3.6 4.4 4.8 4.8 3 13.4 2.4 17.7-1.2 1.3-1.1 1.9-2.6 2.5-4.2 1.7-4.3 2.7-4.8 7.3-4 3.4.6 6.7 1.5 10 2.6 4.3 1.4 5.3 2.6 4.3 7.1-1.1 5 1.4 8.2 4.7 11 3.9 3.2 8.1 5.4 13.4 2.9 4.3-2 5-1.7 7.7 2.3 2.2 3.3 4.3 6.6 5.8 10.3 1.1 2.7.5 5-1.9 6.1-7.4 3.4-5.4 17.3-1 21.3 1.4 1.3 3.2 1.5 4.8 2.3 2.5 1.2 3.5 2.9 2.8 5.8-.8 3.7-1.8 7.2-3 10.8-1.5 4.5-2.3 5-7.1 4.3-7.5-1.1-14.8 5.3-14.9 13.3Zm-36.4-5.7c18.4.5 33.7-14.5 34-32.8.3-18.4-14.8-34-32.7-34.1-18.9-.1-34.2 14.7-34.3 33.2 0 18.4 14.8 33.6 33.1 33.6ZM162.7 164.1c1.8-6.2 4.5-11.7 9.4-15.9 8.3-7.1 17.7-8.4 27.4-4.1 9.1 4 14.5 11.4 15 21.6.4 8.1.3 8.1-8 8.1h-25.1c-.8 0-1.9-.4-2.3.4-.5 1.1.7 1.6 1.3 2.2 4.3 4.3 11 4.9 16 1.1 1.5-1.1 2.3-1.2 3.6.2 1.8 2 3.8 3.9 5.8 5.7 1.6 1.4 1.3 2.5-.2 3.7-15.5 12.6-38.4 4-41.9-15.6 0-.4-.2-.8-.2-1.1-.9-.2-.9.4-1 .9-1.9 12.6-12.6 21.7-25.4 21.9-12.6.2-23.7-8.7-26-21.6-.3-1.8-.2-3.7-.2-5.6v-40.3c0-2.2.7-3.2 2.7-3.7 2.5-.7 5-1.5 7.4-2.5s3.3-.6 3.2 2.2c-.2 6.7 0 13.3 0 20 0 1.9 0 2.9 2.5 1.8 15.4-6.6 32.5 2.6 35.7 19.1 0 .5.2 1 .3 1.5m-13.4 3.2c0-6.8-5.4-12.2-12.3-12.3-7.1 0-12.8 5.3-12.8 12.2 0 6.7 5.8 12.7 12.4 12.8 6.9.1 12.7-5.6 12.7-12.7m50-6.5c-4-7.4-14.8-7.7-19.8-1.7-.3.4-.9.8-.4 1.3.3.3.9.4 1.4.4zM414.8 190.2c-4.8 1.5-9.7 2.7-15.1 1.8-14.8-2.4-24.6-17.4-20.5-31.9 3.2-11.1 13.6-19 25.1-18.8 11.5.1 21.8 8.4 24.5 19.6 1.2 4.9.9 9.9.8 14.9 0 5.8.5 11.6-1 17.4-2.9 10.9-12.6 18.5-24 18.8-6 .1-11.3-1.3-16.1-4.9-1.8-1.3-1.7-2.4-.4-3.8 2.1-2.3 4.4-4.4 6.5-6.7 1.2-1.3 2-.3 2.9.3 6.6 3.8 14.4 1.4 17.4-5.3.2-.4.4-.7-.1-1.3ZM392 167c0 6.8 5 11.8 11.8 11.8 6.9 0 12.2-5.1 12.2-11.8 0-6.9-5.1-11.9-12-12-7 0-11.9 5-11.9 12Z" class="cls-1"/><path d="M0 156.9v-32.4c0-2.6.8-3.1 3.2-3.1 13.6.1 27.2.1 40.7 0 2.5 0 3.4.7 3.2 3.1q-.3 3.9 0 7.8c.1 2.2-.7 2.8-2.9 2.8-8.8-.1-17.6 0-26.3-.1-2.6 0-3.8.5-3.6 3.4.3 3.5.2 7.1 0 10.6-.1 2.4.8 3 3.1 2.9 8.9-.1 17.8 0 26.6 0 2.3 0 3.2.6 3 3q-.3 3.75 0 7.5c.1 2.2-.7 2.8-2.8 2.8-8.6-.1-17.1 0-25.7 0q-4.1 0-4.1 4.3v20.6c0 2-.5 2.8-2.6 2.7-2.8-.2-5.7-.2-8.5 0-2.6.2-3.4-.6-3.4-3.3.1-10.8 0-21.6 0-32.4Z" class="cls-2"/><path d="M266.6 167v22.8c0 2.2-.6 3.1-2.8 2.8-3.8-.5-7.9 1.2-11.5-1.3-.3-.2-1.2.2-1.8.4-9.8 3.1-18.8 1.9-26.7-4.9-4.5-3.9-7.2-8.9-8.2-15-1.1-6.9.2-13.2 4-18.9 6.5-9.7 19.3-13.9 30.4-9.8 1.4.5 2.9 1.7 3.5-1 .2-1.1 1.4-.7 2.2-.7h8.5c2 0 2.5.7 2.5 2.5V167Zm-37.7.5c0 7.1 5.5 12.6 12.7 12.5 6.4 0 12.4-6.1 12.4-12.5 0-6.5-5.9-12.4-12.4-12.5-7.3 0-12.7 5.3-12.7 12.5M328.7 166.9c0-7.5.1-15 0-22.5 0-2.6.8-3.3 3.2-3.1 2.1.2 4.2 0 6.3 0 1.7 0 3.9-.8 4 2.3 0 1.2 1.5.6 2.3.4 8.1-2.1 15.5-1.1 22 4.5 4.8 4.1 7.6 9.5 7.9 15.7.4 8.6 0 17.3.1 25.9 0 1.9-.6 2.6-2.5 2.5q-4.05-.15-8.1 0c-2.1.1-2.7-.7-2.7-2.7v-21.5c0-3.3-.4-6.7-3-9.2-2.9-2.9-6.7-3.6-10.4-2-4.1 1.8-5.8 5.2-5.9 9.5v22.8c0 2.4-.5 3.5-3.1 3.2-3.3-.4-7.5 1.4-9.6-.8-1.9-2-.5-6.2-.5-9.4zM446.7 193.2h-10c-1.8 0-2.7-.4-2.6-2.4q.15-4.5 0-9c0-2 .8-2.4 2.6-2.4H453c.8 0 1.7 0 2.5-.1 1.4-.3 2.6-1 2.4-2.7-.2-1.6-1.3-2.1-2.9-2.2-3.8-.2-7.7-.4-11.2-2.2-6.4-3.3-9.7-10.2-8.4-17.8 1-6.4 6.6-11.9 13.2-13 6.7-1.2 13.5-.3 20.3-.5 1.4 0 1.7.8 1.7 2v10c0 1.8-.6 2.3-2.4 2.3h-13.8c-2 0-5-.9-5.1 2.4 0 3.3 2.9 2.5 5 2.5 8.4 0 14.7 4.3 17 11.6 3.3 10.7-4.3 21.3-15.5 21.5zM63.3 142.3c-3.1 2.3-5.6 4.1-8 6-1.7 1.4-2.8 1.3-3.9-.7-1-1.7-2.2-3.3-3.3-4.9q-2.4-3.6 1-6.1c5.1-3.7 10.3-7.4 15.4-11.3 3.7-2.8 7.8-1.2 11.8-1.3 1.5 0 .9 1.9.9 2.9v56.2c0 3.1 1.4 7-.7 9-1.9 1.8-5.8.5-8.8.5-4.8 0-4.3.5-4.3-4.4v-45.8ZM273.5 178.8c.2-4-.3-8.8.5-13.5 2.3-12.8 12.9-22.8 26.6-24.5 1.7-.2 2.6.4 2.4 2.2v3.4c0 2.3.5 4.8-.2 6.8-.8 2.3-3.8 1.3-5.7 2.2-6.3 3.1-9.8 7.9-9.9 15v19.3c0 2.1-.5 3-2.8 2.9q-4.05-.3-8.1 0c-2.1.1-3-.5-2.9-2.8.2-3.4 0-6.9 0-11.1Z" class="cls-1"/><path d="M320.5 166.5v23.1c0 2.2-.5 3.3-2.9 3.1q-3.9-.3-7.8 0c-2.3.1-3.1-.5-3.1-2.9.1-14.1 0-28.3 0-42.4 0-2 .6-3 2.6-3.5 2.7-.7 5.5-1.4 8-2.6 3.2-1.5 3.3 0 3.2 2.5-.1 7.6 0 15.2 0 22.8Z" class="cls-2"/></g></svg>