<svg xmlns="http://www.w3.org/2000/svg" viewBox="0 0 494.2 171.2"><defs><style>.cls-1{fill:#cfa851}.cls-2{fill:#385eab}.cls-3{fill:#c2983d}.cls-4{fill:#c69f45}.cls-5{fill:#bc9136}.cls-7{fill:#f9f7f5}.cls-8{fill:#d4b56c}.cls-9{fill:#161617}.cls-11{fill:#dfc47c}.cls-12{fill:#d0ae5e}.cls-15{fill:#c69c40}</style></defs><g id="Layer_1"><path d="M-1.2 65.6c.9-2.4.9-5 1.6-7.5C1.7 53 3.2 48 6 43.2c.8.5.8 1.1.8 1.9v7.8c0 .5-.4 1.3.7 1.5-2 6.9-3 13.9-2.6 21 .3 5.8 1.7 11.4 3.5 17-1.1.2-.8.9-.8 1.4v6.6c0 .7 0 1.4-.8 1.9C3.3 96.7 1.5 90.7 0 84.5c-.4-1.8-.3-3.8-1.2-5.5V65.5Z" class="cls-15"/><path d="M47 6.9c5.4-2.5 11.3-4 17.2-5.2C67.7 1 71.3.4 74.9.3c.4 0 .8 0 1.1-.3h7.2v4.9c-5 0-10 .4-14.9 1.2-7 1.1-13.6 3.2-20.1 5.7-.7-.6-.3-1.3-.4-2 0-1 .2-2.1-.8-2.9" class="cls-11"/><path d="M90.3 0c.9.7 2.2.1 3.2.7v4.9c-1.9-.2-3.7-.4-5.6-.5.2-1.7-.4-3.4.4-5h2Z" class="cls-12"/><path d="M88.3 0c-.8 1.6-.2 3.3-.4 5-1.6 0-3.2 0-4.8-.1V0z" class="cls-8"/><path d="M157.6 39.8c7.1-3.2 14.7-5.4 22.6-6.8 9.3-1.6 18.6-2.1 27.8.4 3.7 1 6.4 3 9.3 5.1 7.3 5.2 10.1 12.2 12.6 19.4.2.5.4.9.7 1.7 1-6.2 1.1-12.1 1.7-18 .3-2.6 2.6-4.3 5.7-4.1 12 .6 24 1.3 36 1.9 12.5.7 25.1 1.3 37.6 2 1.4 0 3 .4 3.4 1.3 1.1 2.7 6.2 3 5.8 6.6-.4 3.7-.6 7.4-.9 11.1-.3 2.9-.1 5.8-1 8.7h10.7c4.1 0 8.2-.1 12.3-.2q7.35 0 14.7-.3c2.8 0 4.8.7 6.2 2.8l-1.5-9c-.1-.8-.3-1.5-.3-2.3-.3-2.8 1.3-4.5 4.7-4.9 11.1-1.3 22.1-2.5 33.2-3.7 3.2-.4 6.4-.7 9.6-1.1 2.6-.3 4.6.5 5.6 2.4.4.7.8 1.1 1.7 1.4 1.5.4 2.3 1.4 2.8 2.6.6 1.4 1.2 2.9 1.8 4.3h.6v-5.4c-.1-5.5.4-7 7.8-7.7 13.4-1.3 26.7-3 40.1-4.4 3.1-.3 4.7.5 5.9 2.8.3.6.7.7 1.2.8 1.8.6 3 1.7 3.2 3.4 1.4 8.8 2.9 17.5 4.4 26.2 1.7 10 3.4 20 5 30l4.5 27.6c.3 1.7.6 3.5.8 5.2.3 2.6-1.3 4.3-4.4 4.7-9.6 1.1-19.1 2.2-28.7 3.2-3.4.4-4.7-.3-6.1-2.8-.3-.6-.8-.9-1.5-.8-.8 0-.4.7-.4 1.1-.3 2.3-1.7 3.6-4.4 4-7.1.9-14.1 1.7-21.2 2.5-1.9.2-4.1-.8-4.8-2.3-.5-1.2-1.5-1.6-2.9-1.9v1c0 2.6-1.7 4.3-4.9 4.6-9.4 1-18.7 2.1-28.1 3.2-3.1.4-5.1-.4-6.3-2.9-.3-.6-.8-.7-1.3-.8-1.9-.6-3-1.7-3.2-3.4-1.2-6.9-2.3-13.8-3.5-20.7-1.4-8.5-2.8-17-4.2-25.4-.3-2-.7-4.1-1-6.4-1.6 2.1-4 2.1-6.4 2.2-4.6 0-9.1.2-13.7.2-1.4 0-2.1.2-2 1.6.1 3.5 0 3.5 4.2 3.5h8.6c1.2 0 2.6.4 2.9 1.2 1 2.7 5.8 2.9 5.9 6.2 0 3.7.2 7.3.3 11 0 2 .1 4 .1 6.1 0 2.9-1.9 4.4-5.4 4.5-4.8 0-9.7.2-14.5.2-1 0-1.4 0-1.2 1.1.2 1.9.3 3.8.2 5.7 0 1 .5 1.1 1.5 1.1l13.3-.3c3.1 0 4.5.6 5.7 2.9.3.6.8.8 1.4 1 2.1.7 3.2 2 3.2 3.8.2 5.8.3 11.7.4 17.5 0 3-1.8 4.6-5.4 4.6-8.9.2-17.7.3-26.6.4-10.5.2-21 .4-31.6.5-2.5 0-4.3-.8-5.2-2.8-.2-.5-.6-.8-1.2-1-2.5-.7-3.5-2.3-3.5-4.3-.2-8.8-.3-17.7-.5-26.5-.2-10.9-.5-21.7-.8-32.6 0-.2 0-.3-.3-.9-.3 4.2-.7 7.9-.9 11.6-.6 7.6-1.1 15.3-1.7 22.9-.2 3.1-2.5 4.5-6.2 4.3l-27.9-1.5c-1.9 0-3.8-.2-5.7-.3-1.8-.2-3-1.1-3.7-2.4-.4-.7-.8-1.2-1.8-1.5-2.1-.7-3.1-2.1-3-4 .3-4.2.6-8.5 1-12.7v-1.3c-2.4 3.1-5.1 5.5-8.1 7.5-8.7 5.9-18.9 9.1-29.7 10.9-8.7 1.4-17.5 1.6-26.1-.6-4.4-1.1-7.8-3.3-11.3-5.8-8.3-6-11.6-14.1-14.4-22.5 0-.3-.3-.5-.4-.7l-.6-2.4c-.6-2.4.9-3.9 4.8-5.1 4.1-1 8.3-1.9 13-3-4.1-.9-7.5-1.8-10.7-3.1-1.7-1-3.4-2.1-5.1-3.1-2.1-1.8-4.3-3.5-6.4-5.4-5.3-4.8-7.7-10.8-9.3-17.1-1.2-4.9-1.7-9.8.5-14.6 2-4.3 5.7-7.5 9.9-10.4 1.7-1 3.4-1.9 5.1-2.9Zm249.8 71.9h.4c.1.3.3.6.4.9 4 10.3 7.9 20.6 11.9 30.9.8 2.1 1.5 2.5 4.2 2.2 6.5-.7 13-1.5 19.4-2.2 1.6-.2 2.4-.8 2.4-2.1.2-7.2.5-14.4.7-21.6v-12.2h.7l2.4 14.7c1 5.9 1.9 11.8 2.9 17.7.3 1.9 1.4 2.5 3.8 2.2 9.2-1.1 18.4-2.1 27.7-3.2 2.6-.3 3.4-1 3-3.1-.6-3.6-1.3-7.1-1.9-10.7-2.2-13.2-4.3-26.4-6.5-39.5-2.1-12.6-4.2-25.2-6.3-37.7-.3-1.6-1.3-2.3-3.2-2.1-2 .2-4.1.5-6.1.7-12.2 1.4-24.3 2.8-36.5 4.2-2.3.3-3.1.9-3.1 2.9-.1 7.8-.3 15.5-.4 23.3v5.1c-.5-.3-.7-.6-.8-.9-3.3-8.6-6.6-17.3-10-25.9-1-2.5-1.6-2.7-4.8-2.3-4.3.6-8.6 1-13 1.5-9.4 1.1-18.9 2.1-28.3 3.2-2.5.3-3.1 1.1-2.8 3.1 1.2 6.7 2.3 13.5 3.4 20.2 1.8 10.8 3.5 21.6 5.3 32.4 1.9 11.7 3.9 23.4 5.9 35.1.3 1.8 1.3 2.4 3.5 2.1 6.4-.7 12.7-1.4 19.1-2.1 3-.3 6-.7 9-1 2.1-.3 3.1-1.1 2.8-2.5-1.2-7.2-2.4-14.5-3.6-21.7-.6-3.8-1.2-7.6-1.8-11.3ZM189 94.6c-.4.4-.8.5-1.2.5-9.1 2.2-18.2 4.4-27.3 6.5-1.9.4-2.6 1.4-2.1 2.8 1.9 5.6 3.7 11.2 7 16.4 3.3 5.1 8.2 8.4 15 9.8 6.8 1.5 13.6 1.6 20.5.6 11.6-1.6 22.4-4.7 31.5-10.9 6.2-4.2 10.4-9.2 9.7-16.1-.6-6-2.6-11.6-5.4-17.1-3.5-7-9.4-11.9-18.3-14.1-2.9-.7-5.8-1.5-8.7-2.1-7.1-1.7-14.3-2.5-21.5-3.8-4.4-.8-6.8-3-7.9-6.4-.3-.9-.5-1.8-.7-2.7-.3-1.7.7-2.9 2.6-3.3 2.1-.5 2.7.6 3.2 1.9 1.1 2.8 2.1 5.6 3.1 8.4.6 1.7 1.6 2.3 3.5 1.8 10-2.3 20-4.7 30-7.1 1.6-.4 2.3-1.3 1.9-2.6-1.7-4.7-3.3-9.5-6.1-13.9-2.5-3.9-6.2-6.6-11.4-7.9-3.5-.9-7.1-1.3-10.7-1.4-6.9-.2-13.7.8-20.3 2.3-8.8 2-17.1 4.9-23.9 10.1-5.2 4-8.2 8.9-7.9 14.9.2 3.8 1.2 7.4 2.5 11.1 3.3 9.3 10 15.7 21.8 18.2 7 1.5 14.1 2.8 21.1 4.3Zm159.5 11.3v.2H340c-1.1 0-1.5-.2-1.5-1.1 0-3.4 0-6.8-.3-10.1-.1-1.5.6-1.7 2.1-1.7 5.8 0 11.5-.2 17.3-.2 2.6 0 3.4-.8 3.4-2.9-.1-5.4-.3-10.8-.4-16.2 0-2.4-.8-3-3.7-3-14 .2-27.9.4-41.9.7-4.3 0-8.6 0-12.9.2-2.7 0-3.2.5-3.2 2.8 0 4.5.1 9 .3 13.4.4 11.6.6 23.3.8 34.9l.9 39.8c0 2.6.7 3.1 3.9 3.1 7.9-.2 15.9-.4 23.8-.5 10.9-.2 21.9-.3 32.8-.4 2.7 0 3.7-.8 3.5-3-.4-5.2-.2-10.5-.4-15.7-.1-3-.6-3.4-4.3-3.4l-19.1.3c-.8 0-1.7.2-1.7-1 0-4.5-.1-9.1-.3-13.6 0-.9.3-1.1 1.3-1.1 5.4 0 10.7-.2 16.1-.3 3.2 0 3.8-.5 3.7-3.2-.1-5.2-.3-10.5-.4-15.7 0-1.6-.9-2.2-2.8-2.2h-8.3Zm-100.3 24.5v.7c-.2 3 .3 3.4 3.9 3.5 5.2.2 10.4.6 15.6.8 5.5.3 11 .5 16.4.8 1.8 0 2.7-.6 2.8-2.1 0-1.1.2-2.3.3-3.4.6-7.7 1.1-15.4 1.7-23 .6-8.1 1.3-16.2 1.9-24.3.4-5.7.9-11.3 1.3-17 0-1.3.6-1.8 2.3-1.7 4.9.4 9.9.6 14.8.9 2.2.1 3.3-.6 3.4-2.1.4-5.8.9-11.5 1.2-17.3.1-1.8-.4-2.4-2.6-2.5-9.6-.6-19.1-1.1-28.7-1.6-7.5-.4-14.9-.8-22.4-1.2s-14.9-.8-22.4-1.1c-2.1 0-2.9.5-3.1 2.3-.5 5.7-.9 11.3-1.3 17-.1 2.1.7 2.7 3.2 2.8 4.9.2 9.8.5 14.7.7 1.8 0 2.1.7 1.9 2-.5 4.3-.8 8.6-1.1 12.9-.6 7.8-1.1 15.6-1.7 23.4l-2.4 29.7Zm-.2-30.2c.3-3.9.6-7.7.9-11.6.5-6.5 1-13.1 1.5-19.6 0-1-.3-1.2-1.4-1.2-3-.1-6.1-.4-9.1-.5-2.1-.1-3.4-1.1-4.2-2.6-.2-.4-.2-1-1-1.1-1.1-.2-2-.8-2.7-1.5-.6-.6-.9-.7-1.2.2-.6 1.7-2.1 2.5-4.1 3q-5.7 1.2-11.4 2.7c-1.1.3-2.5.3-3.6 1.1 20.6 3.6 31.3 15 36.3 31.1" class="cls-9"/><path d="M142.9 122.4c-3.4 3.3-7.4 6.1-11.7 8.8 4 2.3 8 4.4 11.5 7.1-.9.4-.6 1.1-.6 1.7 0 1.3.2 2.7-.4 4-6.6-4.9-13.9-9-22-12.3 3.2-1.9 6.3-3.6 9.2-5.4 4.9-3 9.1-6.7 13.1-10.4.6.8.4 1.8.5 2.7 0 1.3-.4 2.6.4 3.8" class="cls-3"/><path d="M83.6 145.6c-2.5-.3-4.9-.7-7.4-.9-8.7-.6-16.3 2-23.7 5.5-2 .9-3.9 1.8-5.9 2.7-.8-1.8-.3-3.6-.5-5.4 2.7-1.6 5.7-2.8 8.6-4 9.3-3.8 19.1-5 29.2-2.8 0 1.6.1 3.3-.4 4.8Z" class="cls-11"/><path d="M142.9 122.4c-.8-1.2-.3-2.5-.4-3.8 0-.9.1-1.8-.5-2.7 0-.2 0-.3.2-.4 7.5-7.5 12.5-16.1 15.5-25.4 1.7 1 3.4 2.1 5.1 3.1-.8 2.1-1.5 4.1-2.3 6.2-3.8 1.1-5.3 2.7-4.8 5.1l.6 2.4c-3.3 5-7.1 9.7-11.6 14-.6.6-1.3 1.1-1.9 1.6Z" class="cls-4"/><path d="M128.8 167.4c-1.8 1.1-3.6 2.1-5.3 3.2-.9.6-1.3.3-1.9-.3-4.6-6-10.4-11.2-17-15.8.6-1.3.3-2.6.4-3.9 0-.6-.2-1.3.9-1.4 5.7 3.2 10.5 7.2 14.9 11.6 1 1 1.8 2.7 3.1 3 1.4.4 2.6-1.4 4.1-1.9v3.7c0 .6-.2 1.3.7 1.7Z" class="cls-5"/><path d="M141.6 144.1c.6-1.3.4-2.7.4-4 0-.6-.3-1.3.6-1.7 5.2 3.5 9.6 7.6 13.7 11.9.6.6.6 1-.3 1.4-4.5 2.5-8.9 5.1-13.3 7.7-.6-1.9-.3-3.8-.4-5.7 1.6-1 3.1-2 4.8-2.9 1-.5 1-1 .2-1.6-2-1.7-3.9-3.4-5.9-5.1Z" class="cls-4"/><path d="M104.7 2.6c6.4 1.3 12.3 3.5 18 6.1 2.2 1 4.4 2 6.3 3.4v3.7c0 .7 0 1.3-.9 1.6-1.5-.8-3-1.6-4.4-2.4-5.9-3.2-12.3-5.5-18.9-7.5v-5Z" class="cls-5"/><path d="M35.4 151.7c-4.5-2.4-8.5-5.3-12.9-7.9-.7-.4-.9-.7-.2-1.3 3.7-2.8 7.1-5.9 11.1-8.4.8 1.3.3 2.6.4 3.9 0 .6-.3 1.3.5 1.8-.9.7-1.7 1.5-2.6 2.2-.8.5-.8.9 0 1.3 1.4.8 2.6 1.7 4 2.5-.7 1.9-.2 3.9-.4 5.8Z" class="cls-12"/><path d="M128 17.4c.9-.3.9-.9.9-1.6v-3.7c5.9 3.2 11 7 15.5 11.5-.4 1.4-.5 2.9-.4 4.3 0 .8.1 1.6-.4 2.4-4.6-4.7-9.8-9-15.6-12.8Z" class="cls-3"/><path d="M143.6 30.3c.6-.7.5-1.6.4-2.4 0-1.5 0-2.9.4-4.3 4.9 4.3 8.6 9.2 12 14.3.4.6.8 1.3 1.2 1.9-1.7 1-3.4 1.9-5.1 2.9-2.3-4.4-5.6-8.4-8.9-12.4" class="cls-4"/><path d="M34.4 139.8c-.8-.5-.5-1.2-.5-1.8-.2-1.3.4-2.7-.4-3.9.2-.2.4-.4.7-.6q2.4-1.8 0-3.5c.8-.5.5-1.2.5-1.8.1-1.2-.3-2.5.4-3.6 4.1 2.6 8.5 4.8 13.3 7.2-5.4 2.2-9.8 5-14 8.1Z" class="cls-8"/><path d="M6.8 102.4c.8-.5.9-1.1.8-1.9v-6.6c0-.5-.3-1.3.8-1.4 2.3 5.5 5.2 10.7 8.8 15.7-.7.5-.4 1.2-.4 1.8-.1 1.8.3 3.6-.5 5.4-3.9-4-7.1-8.3-9.4-13.1Z" class="cls-4"/><path d="M142.5 153.6c0 1.9-.2 3.8.4 5.7-4.7 2.7-9.3 5.4-14 8.1-1-.4-.7-1.1-.7-1.7V162l14.4-8.4Z" class="cls-3"/><path d="M16.2 115.5c.8-1.8.4-3.6.5-5.4 0-.6-.3-1.3.4-1.8 3.2 3.8 6.6 7.4 10.3 10.7-.2 2.1.2 4.3-.5 6.4-4.1-2.9-7.8-6.2-10.9-9.9Z" class="cls-1"/><path d="M35.4 151.7c.2-1.9-.3-3.9.3-5.8.5.3 1.1.6 1.6.9 2.7 2.2 5.5 3.4 8.8.8.2 1.8-.3 3.6.5 5.4-1.4.8-2.8 1.5-4.1 2.3-.6.3-1 .4-1.6 0-1.8-1.2-3.6-2.4-5.5-3.5Z" class="cls-8"/><path d="M27.1 125.3c.7-2.1.3-4.2.5-6.4 2.5 1.9 5 3.7 7.5 5.6-.8 1.2-.3 2.4-.4 3.6 0 .6.3 1.3-.5 1.8-2.6-1.3-4.9-2.9-7-4.7Z" class="cls-12"/><path d="M83.6 145.6c.5-1.6.4-3.2.4-4.8 2.1.3 4.1.8 6 1.4v5.1c-2.1-.6-4.2-1.1-6.4-1.7" class="cls-8"/><path d="M106 149.2c-1.1.1-.9.8-.9 1.4 0 1.3.2 2.6-.4 3.9-1.6-1-3.2-1.9-4.8-2.9.2-1.8-.4-3.7.5-5.4 2 .9 3.9 1.8 5.6 3.1Z" class="cls-3"/><path d="M93.5 5.5V.6c2 .4 4.1.2 6 .8v5c-2-.3-4-.6-6-1Z" class="cls-1"/><path d="M89.9 147.3v-5.1c1.9.5 3.8 1 5.5 1.9-.2 1.7.5 3.5-.4 5.2-1.7-.7-3.4-1.3-5.2-2Z" class="cls-12"/><path d="M99.5 6.5v-5c1.8.2 3.5.4 5.1 1.1v5c-1.7-.4-3.4-.7-5.2-1.1Z" class="cls-3"/><path d="M95.1 149.3c.9-1.7.2-3.5.4-5.2q2.55.75 4.8 2.1c-.9 1.8-.3 3.6-.5 5.4-1.6-.8-3.2-1.5-4.8-2.3Z" class="cls-1"/><path d="M47 6.9c1 .8.7 1.9.8 2.9 0 .7-.3 1.4.4 2-6.3 2.9-12.1 6.3-17.5 10.2-.7-2-.3-4.1-.5-6.1q7.5-5.55 16.8-9" class="cls-8"/><path d="M7.5 54.5c-1.1-.2-.7-1-.7-1.5v-7.8c0-.7 0-1.4-.8-1.9 1.8-4 4.2-7.7 7.1-11.2.9 1.5.3 3.1.4 4.6 0 1.1-.1 2.2.8 3-2.8 4.8-5.2 9.6-6.9 14.8Z" class="cls-4"/><path d="M14.4 39.7c-1-.9-.8-2-.8-3-.1-1.5.4-3.1-.4-4.6 2.5-3.6 5.5-6.8 9.1-9.7.7 1.5.5 3.1.5 4.7 0 .5-.4 1.3.7 1.5-3.4 3.5-6.3 7.3-9 11.2Z" class="cls-1"/><path d="M23.4 28.5c-1-.3-.6-1-.7-1.5 0-1.6.2-3.2-.5-4.7 2.5-2.3 5-4.6 8-6.4.2 2-.2 4.1.5 6.1-2.4 2.2-4.9 4.3-7.3 6.5" class="cls-12"/><path d="M23.4 28.5c2.4-2.2 4.9-4.3 7.3-6.5 5.4-3.9 11.2-7.4 17.5-10.2 6.4-2.5 13.1-4.6 20.1-5.7 4.9-.8 9.9-1.2 14.9-1.2 1.6 0 3.2 0 4.8.1 1.9.2 3.7.4 5.6.5 2 .3 4 .6 6 1 1.7.4 3.4.7 5.2 1.1 6.6 2 13 4.2 18.9 7.5 1.5.8 3 1.6 4.4 2.4 5.8 3.8 11 8.1 15.6 12.8 3.3 4 6.6 7.9 8.9 12.4-4.2 2.9-7.9 6.1-9.9 10.4-2.3 4.8-1.8 9.7-.5 14.6 1.6 6.2 3.9 12.2 9.3 17.1 2 1.9 4.2 3.6 6.4 5.4-3 9.4-8 17.9-15.5 25.4-.1.1-.1.3-.2.4-4 3.7-8.2 7.4-13.1 10.4-3 1.8-6 3.5-9.2 5.4 8.1 3.3 15.4 7.4 22 12.3 2 1.7 3.9 3.4 5.9 5.1.8.6.8 1.1-.2 1.6-1.7.9-3.2 1.9-4.8 2.9l-14.4 8.4c-1.5.5-2.7 2.3-4.1 1.9-1.3-.4-2.1-2-3.1-3-4.4-4.4-9.1-8.4-14.9-11.6-1.7-1.3-3.6-2.2-5.6-3.1q-2.25-1.35-4.8-2.1c-1.7-.8-3.6-1.3-5.5-1.9-2-.6-4-1.2-6-1.4-10.2-2.2-19.9-1-29.2 2.8-3 1.2-5.9 2.4-8.6 4-3.3 2.6-6.1 1.5-8.8-.8-.5-.4-1.1-.6-1.6-.9-1.3-.8-2.6-1.7-4-2.5-.8-.5-.8-.8 0-1.3.9-.7 1.8-1.4 2.6-2.2 4.2-3 8.6-5.9 14-8.1-4.7-2.3-9.2-4.5-13.3-7.2-2.5-1.9-5-3.7-7.5-5.6-3.8-3.4-7.2-7-10.3-10.7-3.6-5-6.5-10.2-8.8-15.7-1.8-5.6-3.2-11.2-3.5-17-.4-7.1.6-14.1 2.6-21 1.7-5.1 4.1-10 6.9-14.8 2.7-3.9 5.7-7.6 9-11.2Zm64.9 94.8c1.6.1 3.2 0 4.8-.5 2-.3 3.9-.8 5.5-1.7 1.3-.5 2.6-1 3.6-1.8 1.6-1 3.2-2 4.3-3.3 7.9-7.3 11-16.2 12.3-25.7.4-.5.3-1.1.3-1.6 1.3-9.8.2-19.4-2.5-28.9 2.1-.1 1.3-1.5 1.3-2.3 0-2.8 0-2.8-3.1-2.9-2.2-5.9-5-11.6-9.2-16.7-1.6-2.5-3.7-4.6-5.9-6.6-1.5-1.6-3.2-2.9-5.1-4.1-1.3-1.2-3.1-1.9-4.7-2.7-1.9-1.2-4.1-1.9-6.4-2.4-6.5-1.8-12.7-1.2-18.5 1.6-6.5 3-10.6 7.8-13.7 13.2-4 7.1-5.8 14.6-6.3 22.3-.6 9.2.4 18.2 3.5 27.1-1.8.2-1.3 1.4-1.4 2.3-.2 1.5.3 2.3 2.3 2h.6c2 5.2 4.6 10.2 8 14.9 4 5.5 8.8 10.5 15.5 14.1 3 1.6 6.1 3 9.7 3.4 1.7.5 3.4.7 5.2.6Z" class="cls-2"/><path d="M407.4 111.7c.6 3.8 1.2 7.6 1.8 11.3 1.2 7.2 2.4 14.5 3.6 21.7.2 1.5-.7 2.3-2.8 2.5-3 .4-6 .7-9 1-6.4.7-12.7 1.4-19.1 2.1-2.2.2-3.2-.3-3.5-2.1-2-11.7-3.9-23.4-5.9-35.1-1.8-10.8-3.5-21.6-5.3-32.4-1.1-6.7-2.3-13.5-3.4-20.2-.4-2 .2-2.8 2.8-3.1 9.4-1.1 18.8-2.2 28.3-3.2 4.3-.5 8.6-.9 13-1.5 3.2-.4 3.9-.2 4.8 2.3 3.3 8.6 6.7 17.3 10 25.9.1.3.3.6.8.9v-5.1c.1-7.8.3-15.5.4-23.3 0-2 .8-2.6 3.1-2.9 12.2-1.4 24.3-2.8 36.5-4.2 2-.2 4.1-.5 6.1-.7 1.9-.2 3 .5 3.2 2.1 2.1 12.6 4.2 25.2 6.3 37.7 2.2 13.2 4.3 26.4 6.5 39.5.6 3.6 1.2 7.1 1.9 10.7.4 2.1-.4 2.8-3 3.1-9.2 1-18.5 2.1-27.7 3.2-2.3.3-3.4-.2-3.8-2.2-1-5.9-2-11.8-2.9-17.7l-2.4-14.7h-.7v12.2c-.2 7.2-.4 14.4-.7 21.6q0 1.95-2.4 2.1c-6.5.7-13 1.5-19.4 2.2-2.7.3-3.4 0-4.2-2.2-4-10.3-7.9-20.6-11.9-30.9-.1-.3-.3-.6-.4-.9h-.4Zm18.3-17.9h-.6l-.6-1.5-14.1-36.6c-.4-1.1-1-1.4-2.4-1.2-5.4.7-10.7 1.2-16.1 1.9-8.1.9-16.1 1.8-24.2 2.7-1.4.1-1.6.5-1.4 1.7 1.3 7.3 2.5 14.7 3.7 22.1 3.5 21.1 7 42.3 10.5 63.4.4 2.2.4 2.2 3.1 1.9 7.6-.9 15.2-1.7 22.8-2.6 4-.4 4-.4 3.5-3.7v-.5c-1.8-10.8-3.6-21.6-5.4-32.5-1.1-6.4-2.1-12.9-3.2-19.5.9.4.9 1.1 1.1 1.6l9.9 25.5c3.3 8.6 6.6 17.2 10 25.9.2.6.2 1.4 1.6 1.3 6.2-.8 12.5-1.5 18.7-2.1.9 0 1.2-.3 1.2-1.1 0-1.9.2-3.8.2-5.7.2-8.5.4-17 .7-25.6.3-9.1.5-18.2.8-27.4l-.1-.1h.1c.2.5.4 1 .5 1.5 1.3 8 2.7 16 4 24 1.8 10.6 3.5 21.2 5.2 31.8.1.9.6 1 1.6.9 8.1-1 16.1-1.9 24.2-2.8 4.2-.5 4.1-.4 3.5-3.7-2.4-13.9-4.7-27.9-7-41.9l-6.9-42c-.2-1.5-.7-2.3-2.7-1.7-1 .3-2.1.3-3.1.4-12.3 1.4-24.7 2.8-37 4.2-1.1.1-1.6.3-1.6 1.4 0 8.5-.3 17-.4 25.6v14.5Zm-236.7.8c-7-1.4-14.1-2.8-21.1-4.3-11.8-2.5-18.5-8.9-21.8-18.2-1.3-3.6-2.3-7.3-2.5-11.1-.3-6.1 2.7-10.9 7.9-14.9 6.8-5.2 15.1-8.1 23.9-10.1 6.6-1.5 13.4-2.5 20.3-2.3 3.6 0 7.2.5 10.7 1.4 5.1 1.3 8.9 4 11.4 7.9 2.8 4.4 4.4 9.2 6.1 13.9.5 1.3-.3 2.3-1.9 2.6-10 2.4-20 4.7-30 7.1-1.9.4-2.8-.2-3.5-1.8-1-2.8-2-5.6-3.1-8.4-.5-1.2-1.1-2.4-3.2-1.9-1.9.5-2.9 1.6-2.6 3.3.2.9.4 1.8.7 2.7 1.1 3.4 3.5 5.6 7.9 6.4 7.1 1.3 14.4 2.2 21.5 3.8l8.7 2.1c8.9 2.2 14.8 7.1 18.3 14.1 2.8 5.5 4.8 11.2 5.4 17.1.7 7-3.5 12-9.7 16.1-9.2 6.2-20 9.3-31.5 10.9-6.9.9-13.7.8-20.5-.6-6.8-1.5-11.7-4.7-15-9.8-3.3-5.2-5.1-10.8-7-16.4-.5-1.4.3-2.4 2.1-2.8 9.1-2.1 18.2-4.3 27.3-6.5.4 0 .8-.1 1.2-.5Zm4.8 1.2h-.1.2c-.4 1.2.4 2.1.8 3.2 1.2 3.5 2.2 7.1 3.9 10.6.4.8.7 1.7 1.8 2 2.2.5 5-1.1 5.1-3 .1-2.4-1.1-4.5-2-6.8-1.5-3.9-5.1-5.4-9.6-5.9Zm.2-60c-5.1 0-10 .7-14.9 1.7-8.6 1.8-16.9 4.2-23.9 8.8-6.2 4.1-9.9 9.2-9 16 .6 4.9 2 9.6 4.4 14 3.2 5.7 8.3 9.7 15.7 11.5 3.6.9 7.3 1.6 10.9 2.4 7.1 1.5 14.4 2.6 21.3 4.5 1.9.5 3.7 1.2 4.9 2.7 2.6 3.1 4.1 6.6 4.6 10.4.4 2.9-1.6 4.9-5.3 5.6-3.2.6-4.9-.2-6.4-3.1-.5-1-.9-1.9-1.2-2.9-1.2-3.3-2.4-6.6-3.5-9.9-.3-.8-.5-.9-1.5-.7-2.8.7-5.7 1.4-8.6 2-6.4 1.5-12.8 3-19.2 4.6-.7.2-1.7 0-1.3 1.2 1.8 4.9 3.4 9.9 6.1 14.5 3.2 5.5 8.3 8.7 15.5 10 7.5 1.3 15 1 22.4-.4 10-1.9 19.3-4.9 27.1-10.6 5.2-3.7 8.3-8.2 7.5-14.1-.8-6.7-3.1-13-7-19-2.9-4.6-7.4-7.7-13.4-9.5-5.4-1.6-11-2.8-16.6-3.9-5.9-1.1-11.9-1.6-17.6-3.2-2.5-.7-4.3-1.9-5.5-3.8-1.3-2-2.2-4.2-2.4-6.5-.3-2.8 1.4-4.8 4.7-5.4 2.9-.6 4.6.3 5.8 3.2 1.1 2.6 2 5.2 2.9 7.8.3.8.6 1.2 1.8.9 9.3-2.2 18.7-4.5 28-6.7.9-.2 1.1-.4.8-1.2-1.3-3.8-2.8-7.6-4.7-11.3-2.6-4.9-7-7.8-13.3-8.8-3.1-.5-6.2-.8-9.3-.8Zm154.5 70.1h8.3c1.9 0 2.8.6 2.8 2.2.1 5.2.3 10.5.4 15.7 0 2.7-.5 3.1-3.7 3.2-5.4 0-10.7.2-16.1.3-1 0-1.3.2-1.3 1.1.1 4.5.3 9.1.3 13.6 0 1.2.8 1 1.7 1 6.4 0 12.7-.2 19.1-.3 3.7 0 4.2.3 4.3 3.4.2 5.2 0 10.5.4 15.7.2 2.1-.8 2.9-3.5 3-10.9.1-21.9.2-32.8.4-7.9.1-15.9.3-23.8.5-3.2 0-3.8-.5-3.9-3.1l-.9-39.8c-.3-11.6-.5-23.3-.8-34.9-.1-4.5-.3-9-.3-13.4 0-2.2.5-2.7 3.2-2.8 4.3 0 8.6-.1 12.9-.2 14-.2 27.9-.4 41.9-.7 2.8 0 3.6.6 3.7 3 .1 5.4.2 10.8.4 16.2 0 2.1-.8 2.9-3.4 2.9-5.8 0-11.5.2-17.3.2-1.5 0-2.2.2-2.1 1.7.2 3.4.3 6.8.3 10.1 0 1 .5 1.2 1.5 1.1h8.5v-.2Zm-35 57.6v-.4H332c9.4 0 18.8-.2 28.2-.4 1.1 0 2.1 0 2-1.3-.2-5-.4-10-.4-15.1 0-1.5-.7-1.8-2.3-1.7-6.9.2-13.8.2-20.7.4-1.4 0-2.1 0-2.1-1.5 0-5.6-.1-11.1-.3-16.7 0-1.3.5-1.5 1.9-1.5 6 0 11.9-.2 17.9-.2 1.1 0 1.5-.2 1.5-1.2-.2-4.9-.3-9.8-.4-14.7 0-.9-.3-1.3-1.6-1.2-6 .2-12.1.2-18.1.3-1.3 0-1.7-.2-1.7-1.4 0-4.7 0-9.4-.2-14.1 0-1.2.3-1.6 1.8-1.6 6.3 0 12.6-.2 18.9-.2 1.4 0 2.1-.2 2-1.6-.2-5-.4-10-.4-15.1 0-1.2-.5-1.5-1.8-1.4l-13.3.3c-13.2.2-26.5.4-39.7.5-1.5 0-2.1.2-2 1.6.3 8.8.5 17.6.7 26.4l.9 41.3c.1 6.4.3 12.8.4 19.2 0 1.2.3 1.6 1.9 1.6 2.8-.1 5.7 0 8.5 0Z" class="cls-7"/><path d="m248.2 130.4 2.4-29.7c.6-7.8 1.1-15.6 1.7-23.4.3-4.3.7-8.6 1.1-12.9.1-1.3-.1-1.9-1.9-2-4.9-.2-9.8-.5-14.7-.7-2.5-.1-3.4-.7-3.2-2.8.4-5.7.8-11.3 1.3-17 .1-1.7 1-2.3 3.1-2.3 7.5.3 14.9.7 22.4 1.1s14.9.8 22.4 1.2c9.6.5 19.1 1 28.7 1.6 2.2.1 2.8.7 2.6 2.5-.4 5.8-.8 11.5-1.2 17.3-.1 1.6-1.3 2.3-3.4 2.1-4.9-.3-9.9-.5-14.8-.9-1.8-.1-2.2.3-2.3 1.7-.4 5.7-.8 11.3-1.3 17-.6 8.1-1.3 16.2-1.9 24.3-.6 7.7-1.1 15.4-1.7 23 0 1.1-.2 2.3-.3 3.4-.1 1.5-1 2.2-2.8 2.1-5.5-.3-11-.5-16.4-.8-5.2-.3-10.4-.6-15.6-.8-3.6-.2-4.1-.5-3.9-3.5v-.7Zm58.2-67.1c.9 0 1.7 0 2.6.1.9 0 1.3-.2 1.3-1 .4-5.2.7-10.4 1.2-15.5.1-1.2-.4-1.5-1.7-1.5-5.1-.2-10.2-.5-15.3-.8-9.7-.5-19.4-1-29.1-1.6-8.9-.5-17.7-.9-26.6-1.4-1.1 0-1.7 0-1.7 1.2-.3 5.1-.7 10.2-1.2 15.4-.1 1.3.4 1.5 1.8 1.6 5.4.2 10.8.6 16.3.8 1.6 0 2 .4 1.9 1.7-.6 7.6-1.1 15.1-1.7 22.7s-1.2 15.1-1.8 22.7c-.6 7.7-1.1 15.5-1.8 23.2 0 1.2.2 1.6 1.8 1.6 3.3 0 6.6.3 9.9.5 6.9.4 13.7.7 20.6 1.1 1.3 0 1.7-.3 1.8-1.3 0-1.7.2-3.5.4-5.2.9-11.2 1.8-22.3 2.6-33.5.8-10.2 1.6-20.4 2.3-30.6 0-.8.3-1.1 1.4-1 5 .3 10 .5 15.1.8Z" class="cls-7"/><path d="M48.5 86c-3.1-8.9-4.1-17.9-3.5-27.1.5-7.7 2.3-15.3 6.3-22.3 3.1-5.4 7.3-10.2 13.7-13.2 5.9-2.8 12.1-3.4 18.5-1.6-.4 1.6.6 3.3-.6 4.8h-.8c-7.9-2.1-14.5-.1-19.7 4.9-6.8 6.6-9.7 14.6-10.9 23.1h-3.6c-.5 0-1 0-1.1.5-.1 1.4-.3 2.8 0 4.2.1.5.8.5 1.3.5 2.7.2 2.9.4 2.9 2.7.2 6.1-.7 12.2-.4 18.3v3.3c.2 1.5-.5 2.3-2.5 2Zm34.7 36.7c-3.6-.4-6.8-1.8-9.7-3.4-6.6-3.6-11.5-8.5-15.5-14.1-3.4-4.7-6-9.7-8-14.9h6.6c-.2.6 0 1.1.3 1.6 1.6 3.5 3.4 6.9 5.7 10.1 5.1 7.1 11.2 13.3 21.1 16.1-1.1 1.5-.2 3.1-.5 4.7Z" class="cls-11"/><path d="M116.8 59.7c2.7 9.5 3.8 19.2 2.5 28.9-.5-.4-.3-.9-.3-1.4 0-.4 0-.8-.6-.9-3.1-.2-3.6-2.3-4.6-4.1v-5.4c-.2-4.5-1.1-9-2-13.5.5-2.2 2.8-3.9 5-3.7Zm2.2 30.5c-1.3 9.5-4.4 18.4-12.3 25.7v-5c0-.8 0-1.5-.9-2 .2-.4.5-.8.7-1.2 3.6-5.5 5.8-11.3 6.5-17.5h6.1Zm-13.2-52.5c4.2 5.2 7 10.8 9.2 16.7h-6.4c-1-3.2-2.9-6.2-4.4-9.2 1-.1.8-.8.8-1.3v-4.7c0-.6 0-1.2.8-1.5" class="cls-5"/><path d="M109.8 54.5h5.2c3.1.1 3.2.1 3.1 2.9 0 .8.9 2.2-1.3 2.3-2.2-.2-4.5 1.5-5 3.7-.4-.2-.7 0-1 .2-1.6 1.7-3.2 3.3-4.9 5-.4.4-.5.7-.2 1.2 2.7 4.2 5.1 8.5 8 12.6 1 1.7 1.5 3.9 4.6 4.1.6 0 .6.5.6.9 0 .5-.2 1 .3 1.4 0 .6 0 1.1-.3 1.6h-9.2v-.7c2.2-.3 4.5 0 6.7-.1.8 0 1.5 0 1.4-.9 0-.6.4-1.4-.9-1.5-1.5 0-2.3-1-2.9-2-3.2-5-6.3-10.1-9.5-15.1-.4-.7-.4-1.2.2-1.8 2.7-2.7 5.3-5.4 8-8.1.8-.8 1.6-1.4 3-1.4 2.1 0 .9-1.4 1.1-2.2.3-.9-.5-1-1.4-1h-5.8v-.9Z" class="cls-4"/><path d="M56.6 90.3h-7.2c-2 .3-2.5-.5-2.3-2 .1-.9-.4-2.1 1.4-2.3 1.9.2 2.6-.5 2.5-2-.1-1.1 0-2.2 0-3.3-.3-6.1.6-12.2.4-18.3 0-2.3-.2-2.5-2.9-2.7-.5 0-1.2 0-1.3-.5-.3-1.4-.2-2.8 0-4.2 0-.5.6-.5 1.1-.5h3.6c2 0 4 0 6 .1v.8H50c-1 0-1.8 0-1.5 1.1.2.8-.9 2.2 1.3 2.1 1.9 0 2.6.9 2.6 2.3v23.9c0 1.4-.9 2.2-2.5 2.2-1.2 0-1.4.4-1.4 1.3 0 1 .6 1.1 1.6 1.1 2.6 0 5.3 0 7.9.1v.7h-1.1Z" class="cls-1"/><path d="M105.8 37.7c-.8.3-.8.9-.8 1.5v4.7c0 .5.2 1.1-.8 1.3-1.7-2.4-3.5-4.8-5.2-7.2.4-.9.4-1.9.4-2.8 0-1.4-.4-2.8.4-4.1 2.3 2 4.4 4.2 5.9 6.6Z" class="cls-15"/><path d="M99.9 31.1c-.8 1.3-.3 2.7-.4 4.1 0 1 0 1.9-.4 2.8-1.6-1.6-3.2-3.3-4.8-4.9.9-2 .2-4.2.5-6.2 1.9 1.2 3.6 2.6 5.1 4.1Z" class="cls-1"/><path d="M94.8 27c-.4 2.1.3 4.2-.5 6.2-1.9-1.3-3.7-2.6-5.6-4 .8-1.2.3-2.4.4-3.7 0-.6-.1-1.2.9-1.3 1.7.8 3.4 1.6 4.7 2.7Z" class="cls-12"/><path d="M105.7 108.9c.9.5.9 1.2.9 2v5c-1.2 1.4-2.8 2.3-4.3 3.3-.8-1.2-.3-2.5-.5-3.8 0-.6.2-1.3-.7-1.7l4.5-4.8Z" class="cls-3"/><path d="M90.1 24.2c-1 .1-.9.8-.9 1.3-.1 1.2.3 2.5-.4 3.7-1.9-.9-3.8-1.8-5.7-2.6 1.1-1.5.2-3.2.6-4.8 2.3.5 4.5 1.3 6.4 2.4" class="cls-8"/><path d="M98.7 121.1c-1.7 1-3.6 1.4-5.5 1.7v-4.9c1.8-.5 3.5-1.3 5.2-2.1.2 1.8-.5 3.6.4 5.3Z" class="cls-1"/><path d="M83.2 122.7c.3-1.5-.6-3.2.5-4.7 1.6.1 3.1.3 4.7.4v4.8c-1.8 0-3.5 0-5.2-.6Z" class="cls-8"/><path d="M88.3 123.3v-4.8l4.8-.6v4.9c-1.6.4-3.2.6-4.8.5" class="cls-12"/><path d="M98.7 121.1c-.9-1.7-.2-3.5-.4-5.3 1-.7 1.9-1.4 2.9-2.1.9.4.6 1.1.7 1.7.1 1.3-.3 2.6.5 3.8-1 .9-2.3 1.4-3.6 1.8Z" class="cls-4"/><path d="M425.7 93.8V79.3c.1-8.5.3-17 .4-25.6 0-1 .5-1.2 1.6-1.4 12.3-1.4 24.7-2.8 37-4.2 1-.1 2.2 0 3.1-.4 2.1-.6 2.5.2 2.7 1.7l6.9 42c2.3 14 4.6 27.9 7 41.9.6 3.3.6 3.3-3.5 3.7-8.1.9-16.1 1.8-24.2 2.8-1 .1-1.4 0-1.6-.9-1.7-10.6-3.5-21.2-5.2-31.8-1.3-8-2.7-16-4-24 0-.5-.3-1-.5-1.5h-.1s.1 0 .1.1c-.3 9.1-.5 18.2-.8 27.4-.2 8.5-.4 17-.7 25.6 0 1.9-.2 3.8-.2 5.7 0 .8-.4 1-1.2 1.1-6.2.7-12.5 1.4-18.7 2.1-1.4.2-1.3-.6-1.6-1.3-3.3-8.6-6.7-17.2-10-25.9l-9.9-25.5c-.2-.5-.2-1.2-1.1-1.6 1.1 6.6 2.2 13.1 3.2 19.5 1.8 10.8 3.6 21.6 5.4 32.5v.5c.5 3.3.5 3.3-3.5 3.7-7.6.8-15.2 1.7-22.8 2.6-2.8.3-2.7.3-3.1-1.9-3.5-21.1-7-42.3-10.5-63.4-1.2-7.4-2.4-14.7-3.7-22.1-.2-1.1 0-1.5 1.4-1.7 8.1-.9 16.1-1.8 24.2-2.7 5.4-.6 10.8-1.2 16.1-1.9 1.4-.2 1.9 0 2.4 1.2l14.1 36.6.6 1.5h.6Z" style="fill:#eb2627"/><path d="M194 35.8c3.1 0 6.2.3 9.3.8 6.3 1 10.7 4 13.3 8.8 2 3.7 3.4 7.4 4.7 11.3.3.8 0 1-.8 1.2-9.4 2.2-18.7 4.4-28 6.7-1.2.3-1.5-.2-1.8-.9-.9-2.6-1.8-5.3-2.9-7.8-1.3-3-2.9-3.8-5.8-3.2-3.3.6-5 2.6-4.7 5.4.3 2.3 1.1 4.5 2.4 6.5 1.2 1.9 3 3.1 5.5 3.8 5.7 1.6 11.8 2.1 17.6 3.2 5.6 1.1 11.2 2.3 16.6 3.9 6 1.8 10.4 4.9 13.4 9.5 3.8 6 6.1 12.3 7 19 .7 5.9-2.4 10.3-7.5 14.1-7.8 5.7-17.1 8.8-27.1 10.6-7.4 1.4-14.9 1.8-22.4.4-7.2-1.3-12.3-4.5-15.5-10-2.7-4.6-4.3-9.6-6.1-14.5-.4-1.1.6-1 1.3-1.2 6.4-1.5 12.8-3.1 19.2-4.6 2.9-.7 5.7-1.3 8.6-2 .9-.2 1.2 0 1.5.7 1.1 3.3 2.3 6.6 3.5 9.9.4 1 .7 2 1.2 2.9 1.5 2.9 3.2 3.8 6.4 3.1 3.7-.7 5.7-2.7 5.3-5.6-.5-3.7-2-7.2-4.6-10.4-1.2-1.4-2.9-2.1-4.9-2.7-7-2-14.2-3.1-21.3-4.5-3.7-.8-7.3-1.5-10.9-2.4-7.4-1.8-12.5-5.8-15.7-11.5-2.5-4.4-3.8-9.2-4.4-14-.9-6.8 2.8-11.9 9-16 7-4.6 15.3-7.1 23.9-8.8 4.9-1 9.9-1.6 14.9-1.7Z" style="fill:#90c841"/><path d="M193.8 95.8c4.5.5 8.1 2 9.6 5.9.9 2.2 2.1 4.3 2 6.8-.1 1.9-2.8 3.5-5.1 3-1.2-.3-1.4-1.2-1.8-2-1.7-3.4-2.7-7-3.9-10.6-.4-1-1.2-2-.8-3.2Zm0 0h-.2.1Z" class="cls-9"/><path d="M313.5 163.5H305c-1.6 0-1.9-.4-1.9-1.6 0-6.4-.2-12.8-.4-19.2l-.9-41.3c-.2-8.8-.4-17.6-.7-26.4 0-1.4.5-1.6 2-1.6 13.2-.1 26.5-.3 39.7-.5 4.4 0 8.9-.1 13.3-.3 1.3 0 1.8.2 1.8 1.4 0 5 .2 10.1.4 15.1 0 1.4-.6 1.6-2 1.6-6.3 0-12.6.2-18.9.2-1.5 0-1.9.4-1.8 1.6.1 4.7.2 9.4.2 14.1 0 1.1.5 1.4 1.7 1.4 6-.1 12.1-.1 18.1-.3 1.3 0 1.6.3 1.6 1.2 0 4.9.2 9.8.4 14.7 0 .9-.3 1.2-1.5 1.2-6 0-11.9.2-17.9.2-1.4 0-1.9.2-1.9 1.5.2 5.6.3 11.1.3 16.7 0 1.4.8 1.5 2.1 1.5 6.9-.1 13.8-.2 20.7-.4 1.6 0 2.3.2 2.3 1.7 0 5 .1 10 .4 15.1 0 1.4-1 1.3-2 1.3-9.4.1-18.8.3-28.2.4h-18.5v.4Z" style="fill:#f9bb19"/><path d="M306.4 63.3c-5-.2-10-.4-15.1-.8-1.1 0-1.3.2-1.4 1-.8 10.2-1.5 20.4-2.3 30.6-.9 11.2-1.7 22.3-2.6 33.5-.1 1.7-.3 3.5-.4 5.2 0 1-.5 1.4-1.8 1.3-6.9-.4-13.7-.7-20.6-1.1-3.3-.2-6.6-.4-9.9-.5-1.5 0-1.9-.4-1.8-1.6.6-7.7 1.2-15.5 1.8-23.2.6-7.6 1.2-15.1 1.8-22.7s1.1-15.2 1.7-22.7c.1-1.3-.3-1.6-1.9-1.7-5.4-.2-10.8-.6-16.3-.8-1.4 0-1.9-.3-1.8-1.6.5-5.1.9-10.2 1.2-15.4 0-1.1.7-1.2 1.7-1.2 8.9.5 17.7.9 26.6 1.4 9.7.5 19.4 1 29.1 1.6 5.1.3 10.2.6 15.3.8 1.4 0 1.8.4 1.7 1.5-.5 5.2-.8 10.3-1.2 15.5 0 .8-.4 1.1-1.3 1-.9 0-1.7 0-2.6-.1Z" style="fill:#3d6cb5"/><path d="M90.8 54.6h7.3c1.1 0 1.4.3 1.4 1.1v2c.2 1.5-.2 2.2-2.3 2.1-1.4-.1-1.7.9-1.7 1.8v9.8c.4.1.5 0 .6-.2 2.8-3.3 5.5-6.7 8.3-10 .8-.9.9-1.5-.8-1.4-1.1 0-1.3-.3-1.3-1.1-.2-3.9-.2-3.9 4.7-3.9h3v.9h-5.2c-.8 0-1.6 0-1.3.9.3.8-1 2.1 1 2.3 1.8.3 2.2.9 1.4 2.2-.6 1-1.4 1.8-2.2 2.7-3 3.6-6 7.3-9.2 11.2V61.1c0-1.3.8-2.3 2.7-2.2 2.1 0 .9-1.3 1.1-2s0-1.2-1.2-1.2h-6.3v-.8Z" class="cls-3"/><path d="M90.7 55.4H97c1.2 0 1.4.5 1.2 1.2s1 2.1-1.1 2c-1.9 0-2.7.9-2.7 2.2v13.9c3.2-3.9 6.2-7.5 9.2-11.2.7-.9 1.5-1.8 2.2-2.7.9-1.3.4-2-1.4-2.2-2-.3-.8-1.6-1-2.3-.3-.9.6-.9 1.3-.9h11c.9 0 1.7 0 1.4 1-.3.8 1 2.2-1.1 2.2-1.4 0-2.3.6-3 1.4-2.7 2.7-5.3 5.4-8 8.1-.6.6-.6 1.1-.2 1.8 3.2 5 6.3 10.1 9.5 15.1.6 1 1.4 1.9 2.9 2 1.3 0 .9.9.9 1.5.1.9-.6.9-1.4.9-2.2 0-4.5-.2-6.7.1-1.6 0-3.3-.1-4.9-.1-1 0-1.8 0-1.6-1.1.2-.8-.8-2 1.4-2.1 2 0 2.3-.7 1.6-2.3-.4-.8-.8-1.6-1.3-2.4-1.7-3-3.4-6-5.2-9.1-1.8 2-3.5 3.8-5.1 5.5-.3.3-.4.7-.4 1.1 0 1.7 0 3.4.1 5.1 0 1.2.7 2.3 2.5 2.2 2.2 0 1.1 1.3 1.3 2.1.3 1.1-.6 1.1-1.5 1.1-3.2 0-6.3 0-9.5.1-.8 0-1.6-.1-2.4-.1H69.5c-1 0-1.6-.3-1.3-1.1.2-.7-.9-1.9 1-2 2.2 0 2.8-1.2 2.8-2.7v-8.5c0-.7-.2-1.1-1.2-1.1H60.3c-.8 0-1.2.2-1.2.9v9.2c0 1.1.5 2.1 2.1 2.2 2.2 0 1.7 1.2 1.8 2.3 0 1.4-1.3.7-2 .8-1 .1-2.1.1-3.2.2-2.6 0-5.3-.1-7.9-.1-1 0-1.6-.1-1.6-1.1 0-.9.2-1.3 1.4-1.3 1.7 0 2.5-.8 2.5-2.2V61.1c0-1.4-.7-2.3-2.6-2.3-2.2 0-1.1-1.4-1.3-2.1-.3-1 .6-1.1 1.5-1.1h7.9c1.3 0 2.6.1 4 0 1.2 0 1.4.5 1.2 1.2s1 2.1-1.1 2c-2.2 0-2.7 1-2.8 2.5v3.8q0 4.5 5.5 4.3h6.2c.6 0 1.2 0 1.2-.7 0-2.7 0-5.5-.1-8.2 0-1.1-.8-1.7-2.2-1.7-2.3.2-1.4-1.2-1.6-2.1-.3-1.2.6-1.2 1.7-1.2h21.1Zm-7.5 3.3c-3.5-.3-4.4 0-4.4 2.1-.3 7.7-.3 15.3 0 23 0 3.1.7 3.4 4.5 3.1 3.7.2 4.4-.3 4.4-3.3V62c0-3-.7-3.5-4.4-3.3Z" class="cls-2"/><path d="M87.2 89.5c3.2 0 6.3-.1 9.5-.1.9 0 1.8 0 1.5-1.1-.2-.8.9-2.1-1.3-2.1-1.8 0-2.4-1-2.5-2.2-.1-1.7 0-3.4-.1-5.1 0-.4.1-.7.4-1.1 1.6-1.8 3.3-3.6 5.1-5.5 1.8 3.2 3.5 6.1 5.2 9.1.4.8.9 1.6 1.3 2.4.8 1.6.4 2.2-1.6 2.3-2.2 0-1.2 1.3-1.4 2.1-.2 1.1.6 1.1 1.6 1.1 1.6 0 3.3 0 4.9.1v.7h-7c-1.3-1.3-.3-2.7-.6-4.1-.2-.8.6-.8 1.3-.8 1.9.1 2.2-.4 1.4-1.8-1.8-3-3.5-6.1-5.2-9.2-4 2.5-4.9 5.8-4.2 9.6.2 1.2 1.1 1.4 2.3 1.3 1.3-.1 1.7.3 1.7 1.4 0 3.6 0 3.6-4.3 3.6-2.7 0-5.3 0-8-.1v-.7Z" class="cls-3"/><path d="M87.2 89.5v.7h-19c-.9 0-1.3-.2-1.3-1v-1.8c-.2-1.4 0-2.3 2.2-2.1 1.2.1 1.7-.6 1.7-1.5v-8.2c0-.8-.6-.9-1.3-.8h-8.1c-.9 0-1.3.2-1.3 1v8c0 .8.3 1.3 1.4 1.4 2 .3 3.5 3.2 2.4 4.6-.3.4-.8.3-1.3.3h-5v-.7c1.1 0 2.1 0 3.2-.2.8 0 2 .5 2-.8 0-1.1.4-2.3-1.8-2.3-1.6 0-2.1-1-2.1-2.2v-9.2c0-.7.4-.9 1.2-.9h10.5c1 0 1.2.3 1.2 1.1v8.5c0 1.5-.6 2.6-2.8 2.7-1.9 0-.8 1.3-1 2-.3.8.3 1.1 1.3 1.1h15.5c.8 0 1.6 0 2.4.1ZM64.5 69.2q-5.5.2-5.5-4.3v-3.8c0-1.5.6-2.5 2.8-2.5 2.1 0 .9-1.3 1.1-2s0-1.2-1.2-1.2h-4v-.8h2c4.4 0 4.4 0 4.4 3.6 0 1.2-.5 1.8-1.9 1.6-1.6-.1-2.1.5-2 1.7 0 1.8.1 3.6 0 5.4 0 1.2.4 1.6 1.8 1.4h2.6v.8Z" class="cls-8"/><path d="M64.5 69.2v-.8h5c1 0 1.4-.3 1.4-1.1v-5.9c0-1.2-.5-1.8-2-1.6-1.6.2-2-.4-2-1.6 0-3.5 0-3.5 4.3-3.5h14.5v.8H69.8c-1 0-1.9 0-1.7 1.2.2.9-.8 2.3 1.6 2.1 1.4 0 2.2.6 2.2 1.7 0 2.7 0 5.5.1 8.2 0 .8-.6.7-1.2.7h-6.2Z" class="cls-11"/><path d="M85.5 55.4v-.8h5.2v.8z" class="cls-12"/><path d="M83.2 86.9c-3.8.3-4.4 0-4.5-3.1-.2-7.7-.3-15.3 0-23 0-2 .9-2.3 4.4-2.1v.8c-3.5.2-3.5.3-3.5 3.2v20.2c0 2.9 0 3 3.5 3.4v.6Z" class="cls-11"/><path d="M83.2 86.9v-.6c3.1-.2 3.2-.3 3.2-2.8V62.4q0-2.7-3.2-2.9v-.8c3.7-.2 4.4.3 4.4 3.3v21.6c0 3-.7 3.5-4.4 3.3" class="cls-8"/></g></svg>