<svg xmlns="http://www.w3.org/2000/svg" id="Layer_1" viewBox="0 0 238 151.65"><defs><clipPath id="clippath"><path d="M172.56 19.23H72.46L15.69 73.31l51.17 58.19 98.8.04 56.75-56.15z" class="cls-1"/></clipPath><clipPath id="clippath-1"><path d="M0 0h238v151.65H0z" class="cls-1"/></clipPath><style>.cls-1,.cls-2{fill:none}.cls-2,.cls-3{stroke:#e78f44;stroke-width:4.12px;stroke-miterlimit:10}.cls-3{fill:#231f20;stroke:#d1d3d4;stroke-width:1.29px}.cls-5{fill:#e78f44}</style></defs><g style="clip-path:url(#clippath)"><g style="clip-path:url(#clippath-1)"><path d="M1.86 1.09v-18.12l-15.84-9.07-15.84 9.07V1.09l15.84 9.07z" class="cls-3"/><path d="M32.82 1.09v-18.12L16.98-26.1 1.14-17.03V1.09l15.84 9.07z" class="cls-3"/><path d="M63.78 1.09v-18.12L47.94-26.1 32.1-17.03V1.09l15.84 9.07z" class="cls-3"/><path d="M94.74 1.09v-18.12L78.9-26.1l-15.83 9.07V1.09l15.83 9.07z" class="cls-3"/><path d="M125.7 1.09v-18.12l-15.84-9.07-15.83 9.07V1.09l15.83 9.07z" class="cls-3"/><path d="M156.66 1.09v-18.12l-15.84-9.07-15.83 9.07V1.09l15.83 9.07z" class="cls-3"/><path d="M187.62 1.09v-18.12l-15.84-9.07-15.83 9.07V1.09l15.83 9.07z" class="cls-3"/><path d="M218.58 1.09v-18.12l-15.84-9.07-15.83 9.07V1.09l15.83 9.07z" class="cls-3"/><path d="M249.54 1.09v-18.12L233.7-26.1l-15.83 9.07V1.09l15.83 9.07zM17.34 27.93V9.8L1.5.74-14.34 9.8v18.13L1.5 36.99z" class="cls-3"/><path d="M48.3 27.93V9.8L32.46.74 16.62 9.8v18.13l15.84 9.06z" class="cls-3"/><path d="M79.26 27.93V9.8L63.42.74 47.59 9.8v18.13l15.83 9.06z" class="cls-3"/><path d="M110.22 27.93V9.8L94.38.74 78.55 9.8v18.13l15.83 9.06z" class="cls-3"/><path d="M141.18 27.93V9.8L125.34.74 109.51 9.8v18.13l15.83 9.06z" class="cls-3"/><path d="M172.14 27.93V9.8L156.3.74 140.47 9.8v18.13l15.83 9.06z" class="cls-3"/><path d="M203.1 27.93V9.8L187.26.74 171.43 9.8v18.13l15.83 9.06z" class="cls-3"/><path d="M234.06 27.93V9.8L218.22.74 202.39 9.8v18.13l15.83 9.06z" class="cls-3"/><path d="M265.02 27.93V9.8L249.19.74 233.35 9.8v18.13l15.84 9.06zM1.86 54.76V36.64l-15.84-9.07-15.84 9.07v18.12l15.84 9.07z" class="cls-3"/><path d="M32.82 54.76V36.64l-15.84-9.07-15.84 9.07v18.12l15.84 9.07z" class="cls-3"/><path d="M63.78 54.76V36.64l-15.84-9.07-15.84 9.07v18.12l15.84 9.07z" class="cls-3"/><path d="M94.74 54.76V36.64L78.9 27.57l-15.83 9.07v18.12l15.83 9.07z" class="cls-3"/><path d="M125.7 54.76V36.64l-15.84-9.07-15.83 9.07v18.12l15.83 9.07z" class="cls-3"/><path d="M156.66 54.76V36.64l-15.84-9.07-15.83 9.07v18.12l15.83 9.07z" class="cls-3"/><path d="M187.62 54.76V36.64l-15.84-9.07-15.83 9.07v18.12l15.83 9.07z" class="cls-3"/><path d="M218.58 54.76V36.64l-15.84-9.07-15.83 9.07v18.12l15.83 9.07z" class="cls-3"/><path d="M249.54 54.76V36.64l-15.84-9.07-15.83 9.07v18.12l15.83 9.07zM17.34 81.6V63.47L1.5 54.41l-15.84 9.06V81.6L1.5 90.66z" class="cls-3"/><path d="M48.3 81.6V63.47l-15.84-9.06-15.84 9.06V81.6l15.84 9.06z" class="cls-3"/><path d="M79.26 81.6V63.47l-15.84-9.06-15.83 9.06V81.6l15.83 9.06z" class="cls-3"/><path d="M110.22 81.6V63.47l-15.84-9.06-15.83 9.06V81.6l15.83 9.06z" class="cls-3"/><path d="M141.18 81.6V63.47l-15.84-9.06-15.83 9.06V81.6l15.83 9.06z" class="cls-3"/><path d="M172.14 81.6V63.47l-15.84-9.06-15.83 9.06V81.6l15.83 9.06z" class="cls-3"/><path d="M203.1 81.6V63.47l-15.84-9.06-15.83 9.06V81.6l15.83 9.06z" class="cls-3"/><path d="M234.06 81.6V63.47l-15.84-9.06-15.83 9.06V81.6l15.83 9.06z" class="cls-3"/><path d="M265.02 81.6V63.47l-15.83-9.06-15.84 9.06V81.6l15.84 9.06zM1.86 108.43V90.3l-15.84-9.06-15.84 9.06v18.13l15.84 9.06z" class="cls-3"/><path d="M32.82 108.43V90.3l-15.84-9.06L1.14 90.3v18.13l15.84 9.06z" class="cls-3"/><path d="M63.78 108.43V90.3l-15.84-9.06L32.1 90.3v18.13l15.84 9.06z" class="cls-3"/><path d="M94.74 108.43V90.3L78.9 81.24 63.07 90.3v18.13l15.83 9.06z" class="cls-3"/><path d="M125.7 108.43V90.3l-15.84-9.06-15.83 9.06v18.13l15.83 9.06z" class="cls-3"/><path d="M156.66 108.43V90.3l-15.84-9.06-15.83 9.06v18.13l15.83 9.06z" class="cls-3"/><path d="M187.62 108.43V90.3l-15.84-9.06-15.83 9.06v18.13l15.83 9.06z" class="cls-3"/><path d="M218.58 108.43V90.3l-15.84-9.06-15.83 9.06v18.13l15.83 9.06z" class="cls-3"/><path d="M249.54 108.43V90.3l-15.84-9.06-15.83 9.06v18.13l15.83 9.06zM17.34 135.26v-18.12L1.5 108.07l-15.84 9.07v18.12l15.84 9.07z" class="cls-3"/><path d="M48.3 135.26v-18.12l-15.84-9.07-15.84 9.07v18.12l15.84 9.07z" class="cls-3"/><path d="M79.26 135.26v-18.12l-15.84-9.07-15.83 9.07v18.12l15.83 9.07z" class="cls-3"/><path d="M110.22 135.26v-18.12l-15.84-9.07-15.83 9.07v18.12l15.83 9.07z" class="cls-3"/><path d="M141.18 135.26v-18.12l-15.84-9.07-15.83 9.07v18.12l15.83 9.07z" class="cls-3"/><path d="M172.14 135.26v-18.12l-15.84-9.07-15.83 9.07v18.12l15.83 9.07z" class="cls-3"/><path d="M203.1 135.26v-18.12l-15.84-9.07-15.83 9.07v18.12l15.83 9.07z" class="cls-3"/><path d="M234.06 135.26v-18.12l-15.84-9.07-15.83 9.07v18.12l15.83 9.07z" class="cls-3"/><path d="M265.02 135.26v-18.12l-15.83-9.07-15.84 9.07v18.12l15.84 9.07zM1.86 162.1v-18.13l-15.84-9.06-15.84 9.06v18.13l15.84 9.06z" class="cls-3"/><path d="M32.82 162.1v-18.13l-15.84-9.06-15.84 9.06v18.13l15.84 9.06z" class="cls-3"/><path d="M63.78 162.1v-18.13l-15.84-9.06-15.84 9.06v18.13l15.84 9.06z" class="cls-3"/><path d="M94.74 162.1v-18.13l-15.84-9.06-15.83 9.06v18.13l15.83 9.06z" class="cls-3"/><path d="M125.7 162.1v-18.13l-15.84-9.06-15.83 9.06v18.13l15.83 9.06z" class="cls-3"/><path d="M156.66 162.1v-18.13l-15.84-9.06-15.83 9.06v18.13l15.83 9.06z" class="cls-3"/><path d="M187.62 162.1v-18.13l-15.84-9.06-15.83 9.06v18.13l15.83 9.06z" class="cls-3"/><path d="M218.58 162.1v-18.13l-15.84-9.06-15.83 9.06v18.13l15.83 9.06z" class="cls-3"/><path d="M249.54 162.1v-18.13l-15.84-9.06-15.83 9.06v18.13l15.83 9.06z" class="cls-3"/></g></g><path d="m159.82 7.26 12.74 11.97H72.46L15.69 73.31l51.17 58.19 12.63-10.89M172.56 19.27l-13.43 10.27" class="cls-2"/><path d="M66.86 131.54h98.8l56.75-56.15-49.85-56.12M66.86 131.5l11.81 11.58" class="cls-2"/><path d="M115.81 82.54c0 1.57-1.23 2.85-2.74 2.85h-2.74l2.74 2.85h2.74v2.85h-3.29c-.38 0-.72-.14-.99-.43l-5.07-5.28h-1.61v5.71h-2.74V76.82h10.96c1.51 0 2.74 1.28 2.74 2.85v2.85Zm-10.95-2.85v2.85h8.22v-2.85zM128.14 76.83c1.51 0 2.74 1.28 2.74 2.85V91.1h-2.74v-5.71h-8.22v5.71h-2.74V79.68c0-1.57 1.23-2.85 2.74-2.85zm-8.22 5.71h8.22v-2.85h-8.22zM134.98 91.1c-1.51 0-2.74-1.28-2.74-2.85v-8.56c0-1.57 1.23-2.85 2.74-2.85h10.96v2.85h-10.96v8.56h10.96v2.85zM147.31 91.1v-2.85h5.48v-8.56h-5.48v-2.85h13.7v2.85h-5.48v8.56h5.48v2.85zM162.37 91.1V78.26c0-.79.62-1.43 1.37-1.43.38 0 .72.16.98.43l8.61 8.97v-9.4h2.74v12.84c0 .78-.62 1.43-1.37 1.43-.38 0-.72-.16-.98-.43l-8.61-8.97v9.4zM191.13 79.69h-10.96v8.56h8.22V85.4h-5.48v-2.85h8.22v5.71c0 1.55-1.21 2.85-2.74 2.85h-8.22c-1.51 0-2.74-1.28-2.74-2.85V79.7c0-1.57 1.23-2.85 2.74-2.85h10.96v2.85ZM51.09 62.12v2.85c0 1.57-1.23 2.85-2.74 2.85h-8.22v5.71h-2.74V59.26h10.96c1.51 0 2.74 1.28 2.74 2.85Zm-2.74 2.85v-2.85h-8.22v2.85zM63.41 59.26c1.51 0 2.74 1.28 2.74 2.85v11.42h-2.74v-5.71h-8.22v5.71h-2.74V62.11c0-1.57 1.23-2.85 2.74-2.85zm-8.22 5.71h8.22v-2.85h-8.22zM67.52 73.53V60.69c0-.79.62-1.43 1.37-1.43.38 0 .72.16.98.43l8.61 8.97v-9.4h2.74V72.1c0 .78-.62 1.43-1.37 1.43-.38 0-.72-.16-.98-.43l-8.61-8.97v9.4zM82.58 73.53V59.26h10.96c1.51 0 2.74 1.28 2.74 2.85v8.56c0 1.57-1.23 2.85-2.74 2.85H82.58Zm2.74-2.85h8.22v-8.56h-8.22zM100.38 73.53c-1.51 0-2.74-1.28-2.74-2.85V59.26h2.74v11.42h8.22V59.26h2.74v11.42c0 1.57-1.23 2.85-2.74 2.85zM126.4 64.97c0 1.57-1.23 2.85-2.74 2.85h-2.74l2.74 2.85h2.74v2.85h-3.29c-.38 0-.72-.14-.99-.43l-5.07-5.28h-1.61v5.71h-2.74V59.25h10.96c1.51 0 2.74 1.28 2.74 2.85v2.85Zm-10.95-2.85v2.85h8.22v-2.85zM138.73 59.26c1.51 0 2.74 1.28 2.74 2.85v11.42h-2.74v-5.71h-8.22v5.71h-2.74V62.11c0-1.57 1.23-2.85 2.74-2.85zm-8.22 5.71h8.22v-2.85h-8.22zM142.83 73.53V60.69c0-.79.62-1.43 1.37-1.43.38 0 .72.16.98.43l8.61 8.97v-9.4h2.74V72.1c0 .78-.62 1.43-1.37 1.43-.38 0-.72-.16-.98-.43l-8.61-8.97v9.4zM160.64 73.53c-1.51 0-2.74-1.28-2.74-2.85v-8.56c0-1.57 1.23-2.85 2.74-2.85h10.96v2.85h-10.96v8.56h10.96v2.85zM186.66 62.12H175.7v2.85h10.96v2.85H175.7v2.85h10.96v2.85H175.7c-1.51 0-2.74-1.28-2.74-2.85v-8.56c0-1.57 1.23-2.85 2.74-2.85h10.96v2.85Z" class="cls-5"/></svg>