<?xml version="1.0" encoding="UTF-8"?>
<svg xmlns="http://www.w3.org/2000/svg" version="1.1" viewBox="0 0 1596 875">
  <defs>
    <style>
      .cls-1 {
        fill: #f88c4b;
      }

      .cls-2 {
        fill: #e6e7e8;
        fill-rule: evenodd;
      }
    </style>
  </defs>
  <!-- Generator: Adobe Illustrator 28.6.0, SVG Export Plug-In . SVG Version: 1.2.0 Build 709)  -->
  <g>
    <g id="Layer_1">
      <path id="Path_5" class="cls-2" d="M1065.5,731.8v24.1c0,3.2-3.2,5.9-7.5,5.9h-212.2v47.6c0,32.3-33.1,65.5-81,65.5h-71.4c-6.2,0-8.1-2.7-9.1-6.2-3-8-7.5-20.8-8.6-23.5-1.6-4.3,1.9-7.2,6.4-7.2h72c16,0,28.3-7.3,28.3-21.7v-54.5h-226c-4,0-7.2-2.7-7.2-5.9v-24.1c0-3.2,3.2-5.9,7.2-5.9h226v-74.3h-193.1c-4.3,0-7.5-2.7-7.5-6.1v-23.8c0-3.3,3.2-5.9,7.5-5.9h193.1v-67.9h-206.7c-4.3,0-7.5-2.7-7.5-6.2v-23.8c0-3.5,3.2-6.1,7.5-6.1h398l4.6-13.4c1.6-3.8,4.8-6.2,8.8-6.2h56.7c5.1,0,6.4,4.1,5.4,7l-10.7,28.6c-3,7-12.6,20.1-33,20.1h-159.7v67.9h179.5c4.1,0,7.5,2.6,7.5,5.9v23.8c0,3.4-3.4,6.1-7.5,6.1h-179.5v74.3h212.2c4.3,0,7.5,2.7,7.5,5.9h0ZM515.5,602.9v149.2c0,35.9-36.1,65-80.5,65h-137.3v51.1c0,3.5-3.2,6.1-7.2,6.1h-51.6c-4,0-7.5-2.6-7.5-6.1v-51.1H94.4c-44.4,0-80.5-29.1-80.5-65v-149.2c0-35.8,36.1-64.9,80.5-64.9h137v-41.7c0-3.3,3.5-5.9,7.5-5.9h51.6c4,0,7.2,2.6,7.2,5.9v41.7h137.3c44.4,0,80.5,29.1,80.5,64.9ZM231.4,574.9h-126.8c-15,0-27.3,9.6-27.3,21.6v162.1c0,12,12.3,21.6,27,21.9h127.1v-205.6ZM451.8,596.8c0-12.3-12-21.9-27-21.9h-127.1v205.6h127.1c15,0,27-9.9,27-21.9v-161.8ZM1592.2,534.7v23.8c0,3.5-3.2,6.2-7.5,6.2h-105.9l-4,9.1c-1.7,3.4-5.9,5.9-10.2,5.9h-47.1c-4.3,0-8.8-2.7-7.5-5.9l34.3-77.3c1.3-3.7,4.8-6.2,8.8-6.2h50c5.1,0,6.7,4.1,5.4,7l-13.7,31.3h89.9c4.3,0,7.5,2.9,7.5,6.1h0ZM1096.2,497.3c-1.3-2.9.3-7,5.4-7h53.2c4.3,0,7.5,2.5,9.1,6.2l37.7,85c1.4,3.5-3.4,6.2-7.5,6.2h-50.8c-4,0-8.5-2.7-10.2-6.2l-36.9-84.2ZM1092,606.7c-1.1-3.2.2-7,5.3-7h53.3c4.2,0,7.4,2.4,9,5.9l37.5,85.3c1.6,3.2-3.2,5.9-7.2,5.9h-50.9c-4,0-8.2-2.4-9.8-5.9l-37.2-84.2ZM1204.3,721.1l-50,147.6c-1.6,4.8-5.6,6.2-9.9,6.2h-50.8c-7.3,0-8.3-4.8-7-8l49.8-146.6c1.3-3.7,4.8-6.1,9.1-6.1h53.2c5.1,0,6.4,3.7,5.6,6.9h0ZM1593,711.8v24.1c0,3.2-3.2,5.8-7.5,5.8h-41.2v95c0,20.8-18.2,38.2-46.8,38.2h-32.1c-4,0-7.2-2.4-8.8-6.2l-10.2-23.8c-1.3-3.2,2.1-5.8,6.1-5.8h31.6v-97.4h-63.7c-4,0-7.4-2.6-7.4-5.8v-24.1c0-3.2,3.4-5.9,7.4-5.9h63.7v-15c0-11.7,8.8-18.7,8.8-18.7l37.8-38.5h-105.4c-4.3,0-7.5-2.7-7.5-6.1v-23.8c0-3.2,3.2-6.2,7.5-6.2h133.4c31.3,0,47.9,28.9,28.4,49.2-20.3,21.1-42.8,43.9-42.8,43.9v15.2h41.2c4.3,0,7.5,2.7,7.5,5.9h0ZM1299.8,579.7v40.6h45.7c25.2,0,46.1,16.6,46.1,37.2v179.2c0,20.8-18.8,38.2-47.1,38.2h-27.8c-4.3,0-7.5-2.4-8.9-6.2l-10.4-23.8c-1.3-3.2,2.4-5.8,6.4-5.8h27.3v-175.7c0-4-4-7.2-8.8-7.2h-22.5v74.6c0,51.6-35.6,137.9-35.6,137.9-1.8,3.5-5.6,6.2-9.6,6.2h-44.9c-4.9,0-7-4-5.1-7,0,0,34.7-89,34.7-149.7v-138.5h-18.4c-4.3,0-7.5-2.7-7.5-5.9v-24c0-3.3,3.2-5.9,7.5-5.9h49.2l-20.6-46.6c-1.1-2.9.3-6.9,5.6-6.9h58.9c4,0,7.5,2.4,8.8,6.1l21.1,47.4h39.9c4.3,0,7.8,2.6,7.8,5.9v24c0,3.2-3.5,5.9-7.8,5.9h-84Z"/>
      <path id="Path_6" class="cls-1" d="M203.6.3c51.9,0,104,19.8,143.9,59.6,16.6,16.6,16.6,43.6,0,60.4-16.9,16.6-43.9,16.6-60.5,0-46.2-46-120.9-46-166.9,0-46.3,46-46.3,120.6,0,166.6,46,46,120.7,46,166.9,0,16.6-16.6,43.6-16.6,60.5,0,16.6,16.6,16.6,43.6,0,60.4-79.5,79.4-208.4,79.4-287.8,0-79.5-79.4-79.5-208,0-287.4C99.2,20.1,151.4.3,203.6.3h0Z"/>
      <path id="Path_6-2" data-name="Path_6" class="cls-1" d="M204.9.3c51.6.5,103.3,20.3,142.6,59.6,16.6,16.6,16.6,43.6,0,60.4-16.9,16.6-43.9,16.6-60.5,0-46.2-46-120.9-46-166.9,0-46.3,46-46.3,120.6,0,166.6,46,46,120.7,46,166.9,0,16.6-16.6,43.6-16.6,60.5,0,16.6,16.6,16.6,43.6,0,60.4-79.5,79.4-208.4,79.4-287.8,0-79.5-79.4-79.5-208,0-287.4C99,20.6,150.3.8,202,.3h2.9ZM761.8,8.6c23.5,0,42.5,19.2,42.5,42.7v304.6c0,23.5-19,42.5-42.5,42.5s-42.8-19-42.8-42.5v-201.6l-85.9,85.5c-16.5,16.9-43.6,16.9-60.4,0l-85.6-85.5v201.6c0,23.5-19.3,42.5-42.8,42.5s-42.8-19-42.8-42.5V51.3c0-23.5,19.2-42.7,42.8-42.7s22.5,4.8,30.2,12.5l128.4,128.4L731.3,21.1c7.8-7.7,18.5-12.5,30.5-12.5h0ZM1051.2.3c51.7.5,103,20.3,142.4,59.6,16.5,16.6,16.5,43.6,0,60.4-16.6,16.6-43.9,16.6-60.5,0-23-23-53.2-34.5-83.5-34.5-65.2,0-117.9,52.7-117.9,117.7s52.7,117.9,117.9,117.9,92.9-31.3,110-75.1h-66.6c-11,10.9-26.2,17.9-43.1,17.9-33.4,0-60.7-27-60.7-60.5s27.3-60.4,60.7-60.4,31.8,6.7,42.8,17.7h117.7c23.6,0,42.8,18.9,42.8,42.5,0,112.3-91.2,203.2-203.6,203.2s-203.5-90.9-203.5-203.2S936.5,1.1,1048,.3h3.2ZM1550.7,9.4c23.5,0,42.5,19.2,42.5,42.7s-19,42.8-42.5,42.8h-170.2v62.1h164.3c23.5,0,42.8,18.9,42.8,42.5s-19.3,42.7-42.8,42.7h-164.3v71.7h170.2c23.5,0,42.5,19,42.5,42.8s-19,42.5-42.5,42.5h-213c-23.5,0-42.8-19-42.8-42.5V52.1c0-23.5,19.3-42.7,42.8-42.7h213Z"/>
    </g>
  </g>
</svg>