<svg xmlns="http://www.w3.org/2000/svg" xmlns:xlink="http://www.w3.org/1999/xlink" width="133" height="58"><defs><path id="a" d="M0 .007h133V31.98H0z"/><path id="c" d="M.148.028h16.955v19.305H.148z"/></defs><g fill="none" fill-rule="evenodd" opacity=".9"><g><mask id="b" fill="#fff"><use xlink:href="#a"/></mask><path fill="#AD8E6B" d="M131.93 7.689H80.47l-.567-.846-.62-.826-.677-.775-.651-.647h53.976zm-40.416 8.755c1.965-.082 3.54-1.296 4.04-3.108.497-1.774-.213-3.559-1.795-4.6h4.568v14.515h-3.246zm-4.896 0h3.432l3.57 6.807h-7.002zm0-7.12h4.785c2.043.072 2.973 1.567 2.973 2.926 0 1.35-.926 2.845-2.973 2.92h-4.785zm25.405 13.832.613-.23.57-.281c.006-.01.006-.01.01-.01v-.004c.006 0 .009 0 .009-.008.009-.01.013-.015.013-.025v-.348c0-.022-.013-.035-.032-.047l-.51-.26v-4.23l.75-.395c.013-.005.025-.023.025-.044v-.189c0-.02-.025-.043-.053-.043h-4.64l-.623-1.155a.06.06 0 0 0-.044-.022h-.279q-.047.001-.048.05v3.533c0 .027.019.053.048.053h.28q.022 0 .043-.032l.622-1.15h2.6v3.711c-2.062.638-4.225.275-5.936-1.003a6.23 6.23 0 0 1-2.51-5.389 6.28 6.28 0 0 1 2.86-4.883c1.687-1.106 3.784-1.359 5.732-.715v1.223c0 .025.019.04.035.055l.247.126a.2.2 0 0 0 .04.004c.014-.004.03-.012.035-.022l1.443-2.69h2.224v14.515h-3.815zm-10.407-7.242c-.031 3.407 2.072 6.259 5.421 7.337h-7.4V8.736h7.55c-3.353 1-5.529 3.782-5.57 7.178m15.237 7.337h2.61V8.736h-2.61zm3.92-13.117 7.157 13.117h-7.158zm7.884 11.713-7.18-13.11h7.18zM81.072 8.737h4.23V23.25h-4.23c2.36-4.488 2.36-10.032 0-14.515m48.895 14.514h1.964V8.736h-1.964zm1.964 4.135H77.955l.651-.647.687-.787.612-.816.564-.846h51.462zm-75.578-1.524c-2.712-2.643-4.2-6.17-4.18-9.933a13.74 13.74 0 0 1 4.282-9.916c2.774-2.658 6.399-4.005 10.046-4.005 3.418 0 6.844 1.192 9.577 3.583l-9.586 9.427-5.798-5.622c-.016-.022-.058-.022-.074 0l-1.011 1.006h-.016c0 .013-.006.028 0 .036v.028h.016v.007l6.853 6.65q.044.03.078 0L77.183 6.668c2.545 2.805 3.824 6.384 3.61 10.097-.21 3.738-1.916 7.18-4.772 9.684-5.697 4.893-14.334 4.641-19.668-.587M1.06 4.595h53.972l-.648.647-.68.78-.63.825-.55.842H1.06zm0 18.656h2.574V8.736H1.06zm40.498-3.84-4.21-10.675h8.426zm-4.779-8.556 4.725 12.003c.012.027.041.037.067.03q0 0 .006-.003s.009 0 .009-.01c.007-.007.013-.007.013-.017l4.74-12.008v12.401h-9.56zm-5.301 10.627h-.295c-.026 0-.045.011-.048.026l-.603 1.15H22.28v-6.02h5.844l.624 1.156c.007 0 .01.008.015.013q.014.006.033.005h.274c.033 0 .06-.018.06-.047v-3.55c0-.024-.027-.048-.06-.048h-.274q-.02-.002-.033.007-.006.002-.015.017l-.624 1.152H22.28V9.324h8.252l.603 1.149c.003.019.022.03.048.03h.295c.024 0 .05-.029.05-.05V8.735h3.944v14.515h-3.944v-1.72c0-.03-.026-.05-.05-.05m-15.663 1.77h5.157V8.735h-5.157zM4.946 10.85l4.741 12.008c0 .01.014.017.017.027h.006s.01.003.019.003c0 .007.016.007.025-.003.01 0 .01 0 .016-.01.003-.007.003-.007.013-.017l4.731-12.003V23.25H4.946zm4.783 8.561L5.512 8.736h8.426zm42.19 3.84h-4.266V8.736h4.267c-2.397 4.612-2.397 9.891 0 14.515m1.155 1.885.63.826.68.78.648.644H1.06V24.29h51.463zm79.872-21.581H76.764c-5.946-4.73-14.58-4.73-20.537 0H.053C.02 3.555 0 3.58 0 3.61v24.758c0 .03.02.055.053.055h56.174c2.974 2.37 6.627 3.557 10.274 3.557 3.644 0 7.29-1.186 10.263-3.557h56.182a.056.056 0 0 0 .054-.055V3.61a.056.056 0 0 0-.054-.055" mask="url(#b)"/></g><path fill="#AD8E6B" d="M45.992 48.191q.252-.196.557-1.387l.077-.287.273-1.393q-1.322.213-1.333.298l-.197.628q.94-.074.907.617-.022.434-.394.52l-.73.084q-.034.032-.066.267l-.143.913q.798-.062 1.05-.26m-1.79 5.192 1.342-1.382q-.6.066-1.157.192zm-.405-9.172 1.321-.223.962-1.807a7.6 7.6 0 0 0-1.317.17q-.615.139-.672.25-.054.112-.163.834-.11.723-.13.776m-1.562 4.782q.82-.2.934-.286t.18-.702l.044-.5-1.288.351zm-3.658 2.945q-.022-.286-.027-.506a1.2 1.2 0 0 1 .109-.494q.115-.274.486-.307.436-.032 1.092.861.252-.086.393-.128l.874-.14 1.081-.295.371-.086.131-.882q-.546.287-.808.52t-.344.252q-.081.014-.409-.39l-.186-.19q-.306-.32-.492-1.064l-.349-1.818-.24-1.094a2.3 2.3 0 0 1 0-.562q.033-.384.786-.224.24.063.53.264.29.204.322.543l.087.596q.656-.276 1.109-.351t.464-.15l.142-.519q-1.038-.023-1.223-.267-.186-.243-.191-.398-.006-.154.322-.4-.23-.275-.285-.434l-.163-.574-.12-.245q-1.038.5-1.365.488a.8.8 0 0 1-.273-.052q-.143-.053-.562-.377t-.525-.462a.8.8 0 0 1-.131-.4q-.028-.26.465-.515l1.157-.17.6-.128q.492-.03.541-.101a.5.5 0 0 0 .06-.239q0-.148-.087-.59-.088-.441-.065-.579.053-.658.775-.67.294.001.763.224.47.224.59.637l.317.883q.645-.022 1.19-.01.547.01.743-.118.197-.126.541-.935.343-.808.447-1.126a.87.87 0 0 1 .323-.468q.217-.148.573-.027.356.123.633.468.279.345.366.744.088.399.033.685l-.076.426q.163.022.262.01L50.36 41q.295.042.677.287t.383.68a.67.67 0 0 1-.208.468q-.197.19-.546.223h-.59l-.863.085-1.08.031a1.5 1.5 0 0 0-.6.224l-.493.52-.545.469q.262.01.37-.054l.284-.265q.143-.117.552-.17t1.054.553q.644.605.655 1.11t-.197 1.227q-.098.309-.283 1.064a6.6 6.6 0 0 1-.443 1.286q-.256.53-.628.797-.37.265-.999.494t-.89.154q-.36-.085-.35-.297l-.076-.5q-.611-.022-.742.085-.13.107-.153.532l-.044.616q.503-.064.884-.133.382-.07.427-.081l1.528-.126a19 19 0 0 1 1.808-.116q.835-.012 1.103-.252.268-.238.339-.26a.6.6 0 0 1 .202-.01q.261.042.567.308l.296.288q.435.435.61.68.176.244.186.616.012.371-.087.85a62 62 0 0 1-.551 2.365 9.5 9.5 0 0 1-.437 1.29 3.4 3.4 0 0 1-.607.968q-.36.394-1.025.712-.667.319-1.257.276t-.666-.202q-.065-.095.028-.53.092-.436.081-.618-.045-.455-.47-.711l-1.212-.66q-.403-.52.164-.446.098.022 1.07.302.973.284 1.158.155.163-.105.328-.599.163-.496.333-1.185.169-.69.218-1.012c.033-.21.067-.4.104-.561q.054-.245-.027-.341-.083-.095-.508-.063-.372.041-1.726.21.36.161.443.28.08.114.142.36.06.244-.235.649-.35.478-.82.36-.043 0-.916-.48-.297.47-.427.672c-.087.133-.314.447-.682.934q-.551.733-1.098 1.34-.546.606-.786.622-.24.014-.546-.208a1.9 1.9 0 0 1-.459-.446 1.16 1.16 0 0 1-.256-.6.75.75 0 0 1 .18-.56l.503-.467q.218-.254.261-1.179l.022-.531q-1.387.34-2.347.67.021.393.054.76.033.365.098.78.066.415.077.855.01.443-.66 1.041-.674.602-.978-.236-.307-.84-.328-1.096l.022-.82-.044-.658q-.371.287-.873.452-.504.165-.907-.287-.404-.452-.437-.722t.71-.682q.742-.407 1.398-.6"/><g transform="translate(57.92 38.667)"><mask id="d" fill="#fff"><use xlink:href="#c"/></mask><path fill="#AD8E6B" d="M11.963 14.458q.17-.11.14-1.04l.031-1.366V10.83q-.53.155-1.047.26.04.836.041.92l-.01 2.258c.449.198.73.264.845.19m-3.075-4.01v-.466l-.041-.641-1.13 1.294q.56-.086 1.171-.187m-5.174-.793q-.944.337-1.182.347-.352.03-.576-.046-.222-.078-.824-.626-.602-.549-.56-.798.021-.186.249-.382.228-.197.715-.228t3.142-.466l2.406-.29 1.804-.228q.572-.612 1.047-1.19-.735-.321-1.524-.809-.59.54-1.09.938a5.5 5.5 0 0 1-1.16.7l-1.12.465-.27.124a1.4 1.4 0 0 1-.394.113q-.248.042-.321-.05-.073-.094-.026-.182t.254-.264l.27-.228q.652-.549 2.292-2.485-.706-.434-1.26-.869-.555-.434-.996-.698t-.347-.492q.093-.238.528-.27.426-.02 1.105.079.678.097.97.231l1.202.53q.435-.54.778-.984A4.6 4.6 0 0 0 9.39.645q.223-.509.405-.585.18-.078.492.036.228.094.768.6.54.508.321 1.15-.073.195-.405.548L9.935 3.47q.84.33 1.431.714.416-.456.602-.714l.528-.786.478-.674q.238-.351.44-.42.202-.065.436.067.233.136.4.596.165.462.067.854a2.6 2.6 0 0 1-.389.818q-.291.425-1.032 1.238-.742.81-.762.843l-.55.704 3.91-.383q.549-.044.912.093.362.135.539.652.177.518.156.776a.5.5 0 0 1-.115.296q-.093.098-.819.077l-1.15-.022q-1.858-.03-4.853.208.623.6.642.797l.146.777q.456-.083.974-.146-.01-.528.197-.682.208-.156.757.206.344.239.83.684.488.446.674.848.186.405.062 2.06l-.103 1.76q-.095.59-.301.914-.208.327-.462.514-.255.187-.71.397-.457.215-.663.141a.45.45 0 0 1-.332-.342l.01-.445c-.028-.267-.294-.57-.798-.9a16 16 0 0 1-.073 1.583q-.062.54-.213 1.071-.15.535-.316.824a4 4 0 0 1-.404.574q-.24.285-.373.29-.135.006-.313-.388-.175-.393-.3-1.387a22 22 0 0 1-.155-1.76l-.031-2.422-.02-1.666q-.53.311-1.048.61a302 302 0 0 0-.125 2.69q-.03.81-.13 1.115a1.5 1.5 0 0 1-.357.58q-.259.273-.446.267-.187-.004-.384-.454t-.155-1.111l.146-1.43.217-2.309q-3.091 2.661-4.946 3.51l-.674.31a2 2 0 0 1-.565.186q-.224.031-.26-.057a.17.17 0 0 1 .02-.171 2.6 2.6 0 0 1 .307-.31l.415-.373q.176-.165 1.446-1.21 1.27-1.046 1.914-1.74l2.84-2.98q-2.446.486-3.39.822" mask="url(#d)"/></g><path fill="#AD8E6B" d="M88.381 43.22q.949-.198.97-.198.396.032.668.313.27.282.287.578.015.298-.246.537-.176.156-1.032.302l-1.084.27-.606.073q.095.76.324.892.23.13.886-.115a5.6 5.6 0 0 1 1.137-.313q.48-.067.6-.176.12-.11.224-.673l.417-1.854.177-.865q-1.032.115-1.747.343-.713.231-1.037.282-.323.052-.408-.146l-.28-.447q-.615.26-1.2.405.23.657.355.834l.177.292q.47-.135 1.418-.333m-1.25 5.255q-.21.048-.627-.39a2.5 2.5 0 0 1-.584-.866q-.176-.456-.495-1.63a74 74 0 0 1-.458-1.755q-.142-.583-.318-1.068-.178-.484-.074-.672.324-.583.908-.27l.614.239q.335-.813.549-1.386.213-.573.317-1.115.105-.54.297-.74.194-.198.73-.146.538.053 1.054.724.516.674.39.818l-.49.875q.615-.145 1.173-.249.559-.105 1.074-.302.517-.198.642-.21.324 0 .856.334.531.335.948.808.417.475.465.761.046.286-.131.828a15 15 0 0 1-.594 1.553q-.273.583-1.195 1.995-.923 1.412-1.475 1.359-.553-.051-.73-.228-.303-.282-.208-.491l.114-.354q-.688.126-.814.188l-.709.323q.512.115.855.291.345.178.507.537.16.36.203.86l.052.76q1.49-1.084 1.83-1.417.339-.334.772-.798.432-.463.688-.531.256-.067.589.21a.93.93 0 0 1 .36.677q.025.4-.151.64-.178.24-.861.422t-1.37.495l-1.159.531-.615.282q1.356 1.02 2.107 1.442.75.422 2.56 1.205 1.81.78 2.84.807 1.034.025 1.101.202.069.178-.349.344l-.813.189a1.3 1.3 0 0 0-.454.255q-.183.16-.428.64t-.447.657q-.205.176-.83.113-.813-.062-1.653-.582-.839-.521-3.634-2.781.041 1.02.037 1.54-.006.522-.047 1.35-.042.83-.246 1.162-.202.333-.828.735-.625.4-1.065.348-.551-.052-.666-.282t-.173-.711a2.3 2.3 0 0 0-.218-.793 2.3 2.3 0 0 0-.5-.615 5 5 0 0 1-.439-.427q-.099-.12-.057-.203t.395.03l.574.313.386.156q.365.156.46.126.146-.042.124-.433-.02-.39.032-1.255a24 24 0 0 0 .041-1.73l-.03-1.552q-.021-.72-.058-1.209a5 5 0 0 0-.078-.667l-.125-.53q-.24.218-.449.264m-1.981 3.268q-.854.3-1.293.556-.438.255-.699.267-.262.01-.541-.282a1.1 1.1 0 0 1-.313-.688q-.034-.395.083-.552a.56.56 0 0 1 .323-.208q.219-.062.939-.162a27 27 0 0 0 2.022-.39q.5-.96.808-.953.307.004.646.349.34.342.277 1.219-.051.655-.422 1.463a14 14 0 0 1-.945 1.704 11 11 0 0 1-1.073 1.443 8.8 8.8 0 0 1-1.292 1.123q-.794.579-1.456.747-.662.166-.693.12-.031-.048.199-.339.165-.209.98-1.384.813-1.18 1.256-1.904t1.194-2.129"/></g></svg>