<?xml version="1.0" encoding="UTF-8"?>
<svg width="133px" height="58px" viewBox="0 0 133 58" version="1.1" xmlns="http://www.w3.org/2000/svg" xmlns:xlink="http://www.w3.org/1999/xlink">
    <title>Group 11</title>
    <defs>
        <polygon id="path-1" points="0 0.00676178451 133.000175 0.00676178451 133.000175 31.9798721 0 31.9798721"></polygon>
        <polygon id="path-3" points="0.148009338 0.028425844 17.1029395 0.028425844 17.1029395 19.3333333 0.148009338 19.3333333"></polygon>
    </defs>
    <g id="Symbols" stroke="none" stroke-width="1" fill="none" fill-rule="evenodd" opacity="0.899999976">
        <g id="Header" transform="translate(-573.000000, -24.000000)">
            <g id="Group-11" transform="translate(573.000000, 24.000000)">
                <g id="Group-3">
                    <mask id="mask-2" fill="white">
                        <use xlink:href="#path-1"></use>
                    </mask>
                    <g id="Clip-2"></g>
                    <path d="M131.930925,7.68895455 L80.469425,7.68895455 L79.902675,6.842633 L79.283425,6.01706061 L78.606175,5.2415303 L77.954925,4.59488889 L131.930925,4.59488889 L131.930925,7.68895455 Z M91.514425,16.444367 C93.478675,16.3618586 95.053425,15.148399 95.553425,13.3361431 C96.050925,11.5624562 95.340675,9.7772963 93.759425,8.73642088 L98.327425,8.73642088 L98.327425,23.2510673 L95.081425,23.2510673 L91.514425,16.444367 Z M86.618425,16.444367 L90.050175,16.444367 L93.619425,23.2510673 L86.618425,23.2510673 L86.618425,16.444367 Z M86.618425,9.32423232 L91.402675,9.32423232 C93.446425,9.39624411 94.376175,10.8909158 94.376175,12.2496195 C94.376175,13.6005118 93.449925,15.0951835 91.402675,15.1703687 L86.618425,15.1703687 L86.618425,9.32423232 Z M112.023175,23.1563535 L112.636425,22.9251835 L113.206425,22.6447037 C113.212175,22.6351835 113.212175,22.6351835 113.215675,22.6351835 L113.215675,22.6312778 C113.221925,22.6312778 113.224925,22.6312778 113.224925,22.6234663 C113.233675,22.6139461 113.237675,22.6075993 113.237675,22.597835 L113.237675,22.5895354 L113.237675,22.2492492 C113.237675,22.2277677 113.224925,22.21483 113.206425,22.2026246 L112.696425,21.9428939 L112.696425,17.7127508 L113.445675,17.3180286 C113.459175,17.3133906 113.470925,17.2950825 113.470925,17.2738451 L113.470925,17.0853939 C113.470925,17.0641566 113.445675,17.0421869 113.417675,17.0421869 L108.777175,17.0421869 L108.154675,15.8868249 C108.141425,15.8716902 108.126175,15.8648552 108.111175,15.8648552 L107.832175,15.8648552 C107.802925,15.8648552 107.783925,15.8834074 107.783925,15.9144091 L107.783925,19.4481128 C107.783925,19.4754529 107.802925,19.5010842 107.832175,19.5010842 L108.111175,19.5010842 C108.126175,19.5010842 108.141425,19.4910758 108.154675,19.4691061 L108.777175,18.3198468 L111.377175,18.3198468 L111.377175,22.0300404 C109.315175,22.6676498 107.151675,22.3051498 105.441175,21.0270017 C103.722925,19.731766 102.818175,17.7664545 102.931925,15.6383232 C103.062175,13.6393249 104.102675,11.8595354 105.791675,10.7549478 C107.477675,9.64913973 109.574925,9.39624411 111.522675,10.0399562 L111.522675,11.2634242 C111.522675,11.2880791 111.541675,11.303702 111.557925,11.3178603 L111.804925,11.4438199 C111.820675,11.4482138 111.836675,11.4482138 111.844925,11.4482138 C111.858675,11.4438199 111.874675,11.4362525 111.880175,11.4262441 L113.323425,8.73642088 L115.546675,8.73642088 L115.546675,23.2510673 L111.731675,23.2510673 L112.023175,23.1563535 Z M101.616425,15.9144091 C101.584675,19.3206886 103.688175,22.1725993 107.037425,23.2510673 L99.636425,23.2510673 L99.636425,8.73642088 L107.187675,8.73642088 C103.834175,9.73604209 101.658425,12.5176498 101.616425,15.9144091 L101.616425,15.9144091 Z M116.852675,23.2510673 L119.462175,23.2510673 L119.462175,8.73642088 L116.852675,8.73642088 L116.852675,23.2510673 Z M120.772175,10.1339377 L127.929925,23.2510673 L120.772175,23.2510673 L120.772175,10.1339377 Z M128.657425,21.8474478 L121.476925,8.73642088 L128.657425,8.73642088 L128.657425,21.8474478 Z M81.072425,8.73642088 L85.301425,8.73642088 L85.301425,23.2510673 L81.072425,23.2510673 C83.432925,18.7633906 83.432925,13.2189714 81.072425,8.73642088 L81.072425,8.73642088 Z M129.966675,23.2510673 L131.930925,23.2510673 L131.930925,8.73642088 L129.966675,8.73642088 L129.966675,23.2510673 Z M131.930925,27.3857643 L77.954925,27.3857643 L78.606175,26.739367 L79.292675,25.9521195 L79.904925,25.1360673 L80.469425,24.2899899 L131.930925,24.2899899 L131.930925,27.3857643 Z M56.353425,25.8620438 C53.640925,23.2188451 52.153925,19.6922205 52.1727451,15.9292997 C52.194675,12.173702 53.706675,8.63975421 56.455175,6.01266667 C59.229425,3.35457744 62.853675,2.00832323 66.501425,2.00832323 C69.918675,2.00832323 73.345425,3.19981313 76.078425,5.5913367 L66.491675,15.0182896 L60.694175,9.39624411 C60.677925,9.3740303 60.636175,9.3740303 60.620425,9.39624411 L59.608925,10.401968 L59.592925,10.401968 C59.592925,10.4151498 59.586675,10.4300404 59.592925,10.438096 L59.592925,10.4441987 L59.592925,10.4522542 L59.592925,10.4664125 L59.608925,10.4664125 L59.608925,10.4725152 L66.462425,17.1234747 C66.491675,17.1430034 66.516925,17.1430034 66.539675,17.1234747 L77.182925,6.66809596 C79.728175,9.47313805 81.006675,13.0520017 80.793675,16.7651246 C80.582675,20.5031465 78.877175,23.9440892 76.021175,26.4491229 C70.324425,31.3415303 61.687425,31.0903434 56.353425,25.8620438 L56.353425,25.8620438 Z M1.060175,4.59488889 L55.031925,4.59488889 L54.384175,5.2415303 L53.703675,6.02169865 L53.074175,6.84678283 L52.523425,7.68895455 L1.060175,7.68895455 L1.060175,4.59488889 Z M1.060175,23.2510673 L3.633675,23.2510673 L3.633675,8.73642088 L1.060175,8.73642088 L1.060175,23.2510673 Z M41.557925,19.4110084 L37.347675,8.73642088 L45.773675,8.73642088 L41.557925,19.4110084 Z M36.779175,10.8547879 L41.504175,22.8578098 C41.516175,22.8849057 41.545425,22.89467 41.571425,22.887835 C41.571425,22.887835 41.573925,22.887835 41.577425,22.8849057 C41.577425,22.8849057 41.585925,22.8849057 41.585925,22.8746532 C41.592925,22.8675741 41.598675,22.8675741 41.598675,22.8578098 L46.339925,10.8501498 L46.339925,23.2510673 L36.779175,23.2510673 L36.779175,10.8547879 Z M31.477675,21.4815303 L31.183425,21.4815303 C31.157175,21.4815303 31.138175,21.4930034 31.135425,21.5078939 L30.532175,22.6578855 L22.279675,22.6578855 L22.279675,16.6377003 L28.124175,16.6377003 L28.748175,17.7940387 C28.754925,17.7940387 28.757675,17.8018502 28.762925,17.8072205 C28.772925,17.8116145 28.782425,17.8116145 28.795675,17.8116145 L29.070175,17.8116145 C29.102925,17.8116145 29.130675,17.7940387 29.130675,17.7654781 L29.130675,14.2159074 C29.130675,14.1912525 29.102925,14.1665976 29.070175,14.1665976 L28.795675,14.1665976 C28.782425,14.1665976 28.772925,14.1665976 28.762925,14.1739209 C28.757675,14.1753855 28.754925,14.1824646 28.748175,14.1912525 L28.124175,15.3429529 L22.279675,15.3429529 L22.279675,9.32423232 L30.532175,9.32423232 L31.135425,10.4725152 C31.138175,10.4920438 31.157175,10.5027845 31.183425,10.5027845 L31.477675,10.5027845 C31.502425,10.5027845 31.528425,10.474468 31.528425,10.4522542 L31.528425,8.73642088 L35.472175,8.73642088 L35.472175,23.2510673 L31.528425,23.2510673 L31.528425,21.5310842 C31.528425,21.5017912 31.502425,21.4815303 31.477675,21.4815303 L31.477675,21.4815303 Z M15.815175,23.2510673 L20.972425,23.2510673 L20.972425,8.73642088 L15.815175,8.73642088 L15.815175,23.2510673 Z M4.946425,10.8501498 L9.687425,22.8578098 C9.687425,22.8675741 9.701175,22.8746532 9.704175,22.8849057 L9.710175,22.8849057 C9.710175,22.8849057 9.719425,22.887835 9.728675,22.887835 C9.728675,22.89467 9.744675,22.89467 9.754175,22.8849057 C9.763925,22.8849057 9.763925,22.8849057 9.770425,22.8746532 C9.773175,22.8675741 9.773175,22.8675741 9.782925,22.8578098 L14.514425,10.8547879 L14.514425,23.2510673 L4.946425,23.2510673 L4.946425,10.8501498 Z M9.728675,19.4110084 L5.512425,8.73642088 L13.937925,8.73642088 L9.728675,19.4110084 Z M51.919925,23.2510673 L47.652675,23.2510673 L47.652675,8.73642088 L51.919925,8.73642088 C49.522675,13.3483485 49.522675,18.6271785 51.919925,23.2510673 L51.919925,23.2510673 Z M53.074175,25.1360673 L53.703675,25.9618838 L54.384175,26.7427845 L55.031925,27.3857643 L1.060175,27.3857643 L1.060175,24.2899899 L52.523425,24.2899899 L53.074175,25.1360673 Z M132.946175,3.55450168 L76.764425,3.55450168 C70.818175,-1.17581818 62.184175,-1.17581818 56.226925,3.55450168 L0.053425,3.55450168 C0.019175,3.55450168 -7.5e-05,3.580133 -7.5e-05,3.61040236 L-7.5e-05,28.3675657 C-7.5e-05,28.3975909 0.019175,28.422734 0.053425,28.422734 L56.226925,28.422734 C59.200675,30.7937525 62.853675,31.9798721 66.501425,31.9798721 C70.145175,31.9798721 73.791175,30.7937525 76.764425,28.422734 L132.946175,28.422734 C132.974425,28.422734 133.000175,28.3975909 133.000175,28.3675657 L133.000175,3.61040236 C133.000175,3.580133 132.974425,3.55450168 132.946175,3.55450168 L132.946175,3.55450168 Z" id="Fill-1" fill="#AD8E6B" mask="url(#mask-2)"></path>
                </g>
                <path d="M45.9924466,48.1911741 C46.1597582,48.0602548 46.3448855,47.5978909 46.5491193,46.8043337 L46.6255456,46.5168639 L46.898718,45.1244952 C46.0174917,45.2662198 45.5739093,45.3654772 45.5661634,45.4222676 L45.3694173,46.0499769 C45.9952868,46.0009763 46.2978936,46.2055221 46.2756887,46.6673835 C46.2612296,46.9571148 46.1300656,47.1287423 45.8824547,47.1862865 L45.1512409,47.2712207 C45.1298105,47.2933338 45.1070892,47.3802783 45.0856588,47.5375825 L44.9431341,48.4512539 C45.4757945,48.4087867 45.8243604,48.3228474 45.9924466,48.1911741 L45.9924466,48.1911741 Z M44.2013342,53.3834707 L45.5444749,52.0014047 C45.1440114,52.0451282 44.7577487,52.1089545 44.3869778,52.1928836 L44.2013342,53.3834707 Z M43.797256,44.2108239 L45.1184499,43.987683 L46.0799754,42.1809457 C45.6134134,42.2018024 45.1747368,42.2593466 44.7631708,42.3510655 C44.3523794,42.4435383 44.1287809,42.5257084 44.0913423,42.6008425 C44.0554529,42.6749715 44.0007152,42.9536463 43.9276454,43.4351079 C43.8553503,43.917072 43.811715,44.1758953 43.797256,44.2108239 L43.797256,44.2108239 Z M42.2354225,48.9930238 C42.7809927,48.8595916 43.0926364,48.7636008 43.1685463,48.7068104 C43.2447144,48.6492662 43.3059071,48.4163253 43.3495424,48.0049722 L43.3926613,47.5054181 L42.1045166,47.8564629 L42.2354225,48.9930238 Z M38.5767714,51.9375783 C38.5625706,51.7471045 38.5532755,51.5774873 38.5496608,51.432496 C38.546046,51.2867509 38.5824518,51.1234158 38.6588781,50.9384702 C38.7355626,50.7547811 38.8969357,50.6527595 39.1448048,50.6306464 C39.4355346,50.6090359 39.7998505,50.8967569 40.236978,51.4920505 C40.4045478,51.4345063 40.5357118,51.3917879 40.6299537,51.3643979 L41.5039505,51.2244322 L42.5852794,50.9291727 L42.9560502,50.8432333 L43.0872143,49.9607213 C42.7228984,50.1527028 42.4533407,50.3253354 42.2787996,50.4808807 C42.1045166,50.6374311 41.989619,50.7208576 41.9351394,50.732668 C41.8804017,50.7419655 41.7440737,50.6120513 41.5261554,50.3439305 L41.3402536,50.1527028 C41.1360198,49.9396134 40.9720647,49.5853019 40.847872,49.088512 L40.4990479,47.2712207 L40.2591829,46.177127 C40.236978,46.0557564 40.236978,45.8688006 40.2591829,45.6145004 C40.2806132,45.3584413 40.5429414,45.2845636 41.0453927,45.3906057 C41.2047002,45.4330728 41.3823397,45.5215251 41.5749546,45.6554598 C41.7678278,45.7909023 41.8752377,45.971576 41.8969263,46.1979836 L41.9841968,46.7937797 C42.4205497,46.609588 42.790546,46.4927406 43.0926364,46.4427349 C43.3944687,46.3927293 43.5493869,46.3432262 43.5566164,46.2937231 L43.6988829,45.7743175 C43.0071732,45.7589891 42.5994802,45.6697831 42.4758039,45.5069505 C42.3516111,45.3446206 42.2880947,45.2124448 42.2849963,45.1086642 C42.2808652,45.0061401 42.3877587,44.8727079 42.6069679,44.7096241 C42.4533407,44.5261862 42.3588406,44.3814462 42.3221767,44.2746502 L42.158738,43.7007158 L42.0386764,43.4562158 C41.3472249,43.7894193 40.8922819,43.9525031 40.6738472,43.944462 C40.5865767,43.944462 40.4949167,43.9273747 40.4006748,43.8921948 C40.3061747,43.8567637 40.1182073,43.7306187 39.83858,43.5145138 C39.5579199,43.2986602 39.383637,43.1441201 39.314182,43.0529038 C39.2449852,42.9606823 39.2008335,42.8275014 39.1830179,42.653361 C39.1646859,42.4804771 39.3188295,42.3083471 39.6475143,42.137976 L40.8050113,41.9671024 L41.4055774,41.8402036 C41.7332294,41.8195983 41.9131927,41.7861774 41.9459837,41.7389359 C41.9785165,41.6939559 41.9991723,41.6132935 42.0061436,41.5004666 C42.0061436,41.4017117 41.9767091,41.2044532 41.9186148,40.9099475 C41.8602623,40.6159444 41.8385738,40.423209 41.8538074,40.3309875 C41.8894386,39.8922443 42.1476355,39.6691035 42.6286565,39.6615649 C42.8251444,39.6615649 43.080243,39.7369503 43.3924031,39.8847058 C43.7061124,40.0339689 43.9023421,40.2465558 43.9823832,40.5222151 L44.2991909,41.4047272 C44.7288306,41.3904039 45.1256794,41.3868859 45.4894789,41.3944245 C45.8535366,41.4017117 46.1014057,41.3625113 46.2323116,41.2770745 C46.3634756,41.1933967 46.5436971,40.8805472 46.7732342,40.3422953 C47.0014803,39.8037921 47.151751,39.4278701 47.2204314,39.2157858 C47.2891118,39.0037015 47.3972963,38.8481562 47.5426612,38.7476423 C47.6880261,38.64939 47.8790918,38.640595 48.1161167,38.7210061 C48.3533997,38.802925 48.563572,38.9587215 48.7494738,39.1891496 C48.9348593,39.419829 49.0572446,39.6673445 49.1153389,39.933455 C49.1734333,40.1988117 49.1842775,40.4269782 49.14813,40.6179546 L49.0717036,41.0438823 C49.180921,41.0577029 49.2684497,41.0617235 49.3337736,41.0539337 L50.3603647,41.0009126 C50.5571108,41.0293078 50.7822586,41.1252985 51.0373572,41.2883823 C51.2919394,41.4514661 51.4200051,41.6783762 51.4200051,41.9671024 C51.4122592,42.1522993 51.343837,42.3083471 51.2118983,42.4359997 C51.0809925,42.5634011 50.8987054,42.6370275 50.6663281,42.6591406 L50.0766063,42.6591406 L49.2134538,42.7438235 L48.1326413,42.7754854 C47.8847722,42.8187064 47.6844113,42.8928354 47.5320751,42.9991288 L47.0399517,43.5195395 L46.4946397,43.987683 C46.6691808,43.9957241 46.7931154,43.9761239 46.8656687,43.9344106 L47.1494272,43.6688027 C47.2444437,43.5906531 47.4285381,43.5343653 47.7011941,43.4989342 C47.9746247,43.4632518 48.3252562,43.6469409 48.7551542,44.0515093 C49.1842775,44.4543188 49.4021958,44.8259689 49.4099417,45.1621879 C49.4179458,45.4984069 49.3523638,45.9077497 49.2134538,46.3892113 C49.14813,46.5952648 49.0533717,46.949325 48.9296953,47.4528996 C48.806019,47.9557203 48.6583303,48.3839095 48.4874039,48.7387236 C48.3159611,49.0920299 48.107338,49.3581405 47.8594689,49.5363014 C47.611858,49.7129545 47.2790421,49.8772948 46.8599884,50.0298246 C46.4409347,50.1821031 46.1447828,50.2331139 45.9702417,50.1841134 C45.7296021,50.1270718 45.6134134,50.027563 45.620643,49.8870949 L45.5444749,49.3862844 C45.1367818,49.372715 44.8889127,49.4003563 44.8016422,49.472475 C44.7146298,49.5435886 44.663765,49.7197392 44.6490478,50.0039423 L44.6048961,50.6203437 C44.9402939,50.5776253 45.2348967,50.5328966 45.4894789,50.4869115 C45.7438029,50.4401726 45.8863276,50.4142902 45.9160203,50.4057466 L47.4442882,50.2798529 C48.0928789,50.208488 48.6944779,50.1697902 49.2516669,50.1635081 C49.808856,50.1559695 50.1762703,50.0720404 50.3546844,49.9122233 C50.5338731,49.7531601 50.646447,49.6672207 50.6939552,49.6523949 C50.7406889,49.638323 50.8078201,49.6337998 50.8958652,49.6415897 C51.0701482,49.6702361 51.2588902,49.7727603 51.463124,49.9504186 L51.7585013,50.2376371 C52.0492311,50.5271171 52.2532067,50.7547811 52.3699117,50.9178649 C52.485584,51.0801948 52.5483258,51.2867509 52.5552972,51.5342663 C52.5627849,51.7815305 52.5338668,52.0647284 52.4680266,52.3843626 C52.2276452,53.4817231 52.043809,54.2712597 51.9165179,54.748952 C51.7894849,55.2258905 51.6438619,55.6568438 51.4796486,56.0395504 C51.3154353,56.4225084 51.1137835,56.7444041 50.8734021,57.0069967 C50.6330207,57.2695893 50.2906515,57.5065508 49.8475855,57.7191377 C49.4027122,57.931222 48.9841749,58.0244486 48.5911991,57.9945457 C48.1979651,57.967407 47.9761739,57.8993088 47.9250509,57.7932667 C47.8816738,57.7304455 47.8901943,57.5527872 47.952678,57.262302 C48.0143871,56.9715656 48.0417559,56.7665172 48.0342682,56.645398 C48.0048338,56.3415947 47.8481082,56.1038793 47.5648661,55.9337596 L46.3523732,55.2741371 C46.0830737,54.928118 46.1375533,54.7783523 46.5163282,54.8278554 C46.5819103,54.8421787 46.9384803,54.9436977 47.5860383,55.130151 C48.2343709,55.3191171 48.6206335,55.3701279 48.7443099,55.2846911 C48.8530108,55.2145826 48.9624863,55.0143087 49.0717036,54.6861308 C49.180921,54.356194 49.2916875,53.9601692 49.4047777,53.5013233 C49.5173516,53.0399645 49.5906796,52.7037455 49.6234706,52.4888971 C49.6560034,52.2783205 49.6903436,52.0898569 49.7270076,51.9277782 C49.7631551,51.7639406 49.7536018,51.6506112 49.6996387,51.5867848 C49.6449009,51.5239637 49.4752655,51.5023532 49.1922816,51.5239637 C48.9441543,51.5518563 48.3694079,51.6214621 47.4664931,51.7345403 C47.7066163,51.8418389 47.8535303,51.9345629 47.9087845,52.0132151 C47.9632641,52.0898569 48.0102559,52.2104736 48.0505346,52.3740599 C48.0908134,52.5358873 48.0128379,52.752746 47.8160918,53.0228771 C47.5831981,53.3417575 47.3100257,53.4611177 46.9968328,53.3834707 C46.9673983,53.3834707 46.6619513,53.2239049 46.0799754,52.9035169 C45.8824547,53.2166177 45.7407045,53.4395072 45.653434,53.5749497 C45.5661634,53.7083819 45.3386919,54.0219853 44.970503,54.5094777 C44.6033469,54.9977239 44.23774,55.4442569 43.8729077,55.8483228 C43.5093663,56.253645 43.2470382,56.459196 43.0872143,56.4705038 C42.9271322,56.4808065 42.7453615,56.4117031 42.5413859,56.2629426 C42.3877587,56.1641877 42.2354225,56.0166835 42.0823117,55.8169122 C41.9297173,55.6186485 41.8439959,55.4173694 41.8259221,55.2175981 C41.8073319,55.0143087 41.8680082,54.8278554 42.0061436,54.6574844 L42.5085949,54.190346 C42.6539598,54.0219853 42.7412304,53.6269657 42.7704066,53.0110668 L42.7923534,52.4798508 C41.8680082,52.7062584 41.085155,52.9304044 40.4448265,53.1502785 C40.458511,53.4118659 40.4771011,53.6651609 40.4990479,53.9091584 C40.5212528,54.1531559 40.5540438,54.4137382 40.5971627,54.6899001 C40.6410562,54.9663133 40.6666177,55.2520241 40.6738472,55.5450221 C40.6813349,55.8402816 40.4605765,56.1868033 40.0131212,56.586346 C39.5648912,56.9884016 39.2390467,56.9082418 39.0355875,56.3498871 C38.8313537,55.7892708 38.7223945,55.4236515 38.7084519,55.2537831 L38.7301404,54.4348461 L38.6859888,53.7762288 C38.4388943,53.9669539 38.1471317,54.1182273 37.8127666,54.2280388 C37.4773688,54.338604 37.1752783,54.242362 36.9057207,53.940569 C36.6371958,53.6397812 36.4907981,53.3987991 36.4691096,53.218628 C36.447421,53.0384568 36.6836713,52.8107928 37.1791513,52.5368924 C37.6741148,52.2650024 38.1399022,52.0662361 38.5767714,51.9375783 L38.5767714,51.9375783 Z" id="Fill-4" fill="#AD8E6B"></path>
                <g id="Group-8" transform="translate(57.919355, 38.666667)">
                    <mask id="mask-4" fill="white">
                        <use xlink:href="#path-3"></use>
                    </mask>
                    <g id="Clip-7"></g>
                    <path d="M11.9628658,14.4583477 C12.0763755,14.3851747 12.1232013,14.038643 12.1026077,13.4172844 L12.1342335,12.0517148 L12.1342335,10.8300439 C11.7814465,10.934297 11.4323368,11.0197063 11.0866594,11.0894532 C11.1143626,11.6484068 11.1283368,11.9543139 11.1283368,12.0106008 L11.1177948,14.2677063 C11.5669303,14.4659342 11.8483755,14.5324996 11.9628658,14.4583477 M8.88829806,10.4475376 L8.88829806,9.98182447 L8.84662065,9.34064304 L7.71618194,10.6349975 C8.08931742,10.5782211 8.48084,10.515816 8.88829806,10.4475376 M3.71392387,9.65511561 C3.08434968,9.87977384 2.69086581,9.99552911 2.53175613,10.0021367 C2.29664645,10.0226937 2.10468516,10.0065418 1.95611742,9.95588354 C1.80779484,9.90449114 1.53272387,9.69451646 1.13188516,9.32963038 C0.73080129,8.96352068 0.543988387,8.69774852 0.572181935,8.53231392 C0.585910968,8.40799325 0.668530323,8.28098059 0.821020645,8.14956287 C0.973020645,8.0186346 1.21156258,7.94203544 1.53640129,7.92245738 C1.86124,7.90116624 2.90807871,7.74503122 4.67838839,7.45649958 L7.08366581,7.16625485 L8.88829806,6.93768101 C9.26903355,6.53045738 9.61716258,6.13424641 9.93538194,5.7480692 C9.44481419,5.53344473 8.93659484,5.26498059 8.41096903,4.93949536 C8.01650452,5.29875274 7.65415613,5.61077806 7.32171742,5.87703966 C6.99025935,6.14207764 6.60314968,6.37579072 6.16112387,6.5762211 L5.04073677,7.04193418 L4.77130452,7.16625485 C4.67397548,7.21397637 4.54354968,7.25239831 4.37733032,7.27907342 C4.21160129,7.30721688 4.10373032,7.29057553 4.05592387,7.22841519 C4.00738194,7.16625485 3.99929161,7.10556287 4.02993677,7.04682869 C4.06107226,6.98907342 4.1456529,6.89999325 4.28392387,6.78301435 L4.55360129,6.55492996 C4.98949806,6.1893097 5.75244,5.36115781 6.84561419,4.07047426 C6.37490452,3.78096371 5.95518839,3.49145316 5.58524,3.20145316 C5.21578194,2.91218734 4.88358839,2.67896371 4.59013032,2.50276118 C4.29593677,2.3270481 4.18046581,2.16283713 4.24273677,2.0113519 C4.30500774,1.85228017 4.48127871,1.76271055 4.77130452,1.74166414 C5.05520129,1.72820422 5.42294323,1.75414515 5.87551097,1.81973165 C6.32832387,1.88482869 6.65193677,1.9619173 6.84561419,2.05148692 L8.04788516,2.58009451 C8.33840129,2.22108186 8.59753677,1.89412827 8.82553677,1.5967865 C9.05451742,1.30042363 9.24206581,0.98276962 9.39112387,0.645292827 C9.53895613,0.306347679 9.67502065,0.11105654 9.79564,0.0601535865 C9.91625935,0.00802700422 10.0805174,0.0202632911 10.2884142,0.0958835443 C10.440169,0.158043882 10.6963626,0.358963713 11.0555239,0.696929958 C11.4156658,1.03465148 11.5218206,1.41764726 11.3771755,1.84616203 C11.3283884,1.97660084 11.1933045,2.15916624 10.972169,2.39385823 L9.93538194,3.47065148 C10.4953303,3.69090464 10.972169,3.92951224 11.3661432,4.18500591 C11.6434206,3.88056709 11.8437174,3.64318312 11.9680142,3.47065148 L12.4963368,2.68532658 L12.9736658,2.0113519 C13.1325303,1.77714937 13.2791368,1.63692152 13.414711,1.59164726 C13.5488142,1.54759662 13.6941948,1.56937722 13.8503626,1.65845738 C14.0050594,1.74827173 14.1386723,1.94723376 14.24924,2.25387511 C14.3598077,2.56198481 14.3818723,2.84684557 14.3169045,3.10796793 C14.2512013,3.37080338 14.1210206,3.64318312 13.9280787,3.92608608 C13.7341561,4.20923376 13.3901948,4.62159662 12.8961948,5.16366414 C12.4014594,5.70426329 12.1472271,5.98496371 12.1342335,6.00698903 L11.5836013,6.71057553 C13.2850206,6.5448962 14.5878077,6.41690464 15.4931884,6.32757975 C15.8599497,6.29919156 16.1637045,6.33027173 16.4064142,6.42057553 C16.6476529,6.51038987 16.8273561,6.72795105 16.9450335,7.07276962 C17.0629561,7.41758819 17.1146852,7.67699747 17.100711,7.84879494 C17.0867368,7.97972321 17.0484916,8.07883713 16.9862206,8.14466835 C16.9239497,8.21025485 16.6510852,8.23595105 16.1673819,8.22175696 L15.0163497,8.2002211 C13.77804,8.17990886 12.1612013,8.24892152 10.1638723,8.40799325 C10.5786852,8.80811983 10.7932013,9.07340253 10.80644,9.2053097 L10.9515755,9.98182447 C11.2555755,9.92578228 11.5806594,9.87879494 11.9260916,9.83596793 C11.9192271,9.4847865 11.985911,9.25645738 12.1232013,9.15416203 C12.2622077,9.04966414 12.5134981,9.11843207 12.8802594,9.36046582 C13.1087497,9.51880338 13.3855368,9.74737722 13.7101303,10.0437401 C14.0347239,10.3410819 14.2597819,10.6234954 14.3838335,10.8922042 C14.5083755,11.1611578 14.5294594,11.8476135 14.4461045,12.9513266 L14.3431368,14.7126177 C14.2803755,15.1041789 14.179369,15.4105755 14.0415884,15.6264236 C13.9030723,15.8439848 13.7498465,16.0155376 13.58044,16.1403477 C13.4107884,16.2641789 13.1742077,16.3965755 12.8697174,16.5370481 C12.5657174,16.6799679 12.3440916,16.7264658 12.2065561,16.6780101 C12.0266077,16.6241705 11.91604,16.5093941 11.8748529,16.3358835 L11.8849045,15.8909722 C11.8569561,15.6242211 11.5912013,15.3214954 11.0866594,14.9903814 C11.0793045,15.6871156 11.0555239,16.2159679 11.0138465,16.5742464 C10.972169,16.9347274 10.9018077,17.2908034 10.8012916,17.645411 C10.7007755,18.0017316 10.5958465,18.2760692 10.4852787,18.4691578 C10.3742206,18.6627359 10.2396271,18.8548456 10.0805174,19.0430397 C9.9216529,19.2329468 9.79711097,19.3288793 9.7076271,19.3333701 C9.61716258,19.3372 9.51370452,19.2070059 9.39529161,18.9451494 C9.27859484,18.6832928 9.17807871,18.2205165 9.09521419,17.5580439 C9.01284,16.8950819 8.96062065,16.3094532 8.9400271,15.7982211 L8.90889161,13.375681 L8.88829806,11.7103224 C8.53551097,11.9178498 8.18640129,12.1204827 7.84072387,12.3209131 C7.7784529,13.5763561 7.73751097,14.4735207 7.71618194,15.0109384 C7.69558839,15.5495797 7.65219484,15.9210734 7.58624645,16.1254194 C7.52103355,16.3287865 7.40188516,16.5208962 7.22880129,16.7044405 C7.05596258,16.8874954 6.90764,16.9763308 6.78309806,16.9724152 C6.65782065,16.9697232 6.53058194,16.8172591 6.39942065,16.5179595 C6.26801419,16.2171916 6.21628516,15.8469215 6.24374323,15.4066599 L6.38961419,13.9774616 L6.60658194,11.6679848 C4.5472271,13.441757 2.89778194,14.6117907 1.66094323,15.1780861 L0.986994839,15.4874194 C0.758994839,15.5931409 0.570710968,15.6548118 0.421898065,15.6739004 C0.273330323,15.6944574 0.186298065,15.6768371 0.161781935,15.6168793 C0.138246452,15.5576557 0.144620645,15.5018582 0.182865806,15.445816 C0.220865806,15.3917316 0.322852903,15.2877232 0.489072258,15.1352591 L0.90364,14.7632759 C1.02107226,14.6524152 1.50330452,14.2486177 2.35033677,13.5526177 C3.19663355,12.8551494 3.83478839,12.2758835 4.26382065,11.8135966 L7.10474968,8.83259241 C5.47320129,9.15660928 4.34276258,9.43094684 3.71392387,9.65511561" id="Fill-6" fill="#AD8E6B" mask="url(#mask-4)"></path>
                </g>
                <path d="M88.3813244,43.2205516 C89.0134461,43.0882724 89.3371496,43.0222559 89.3512022,43.0222559 C89.6154902,43.043194 89.8378668,43.1478843 90.0190718,43.3353414 C90.1995371,43.5230449 90.2954401,43.715675 90.3055481,43.9132318 C90.3156562,44.1115275 90.2342988,44.2906094 90.06049,44.4502313 C89.9428917,44.5529509 89.5982326,44.6551779 89.0284849,44.7522319 L87.9437207,45.0227024 L87.3384716,45.0951234 C87.4008456,45.6020707 87.509322,45.8988984 87.6619286,45.9865919 C87.8145352,46.0735464 88.1101334,46.0356116 88.5479837,45.8718021 C88.9860804,45.7092242 89.3645152,45.6047803 89.6847672,45.5594556 C90.0050191,45.5146235 90.2047144,45.4552579 90.284839,45.3825906 C90.3647171,45.3099232 90.439911,45.0852702 90.5086949,44.7096168 L90.9255895,42.8559831 L91.1033428,41.9913646 C90.4147641,42.0669879 89.8331826,42.1827631 89.3563795,42.3342561 C88.8805625,42.487966 88.533931,42.5815714 88.318704,42.6158113 C88.1034769,42.6512829 87.9676348,42.6020168 87.9114243,42.4704766 L87.6306183,42.0226485 C87.2203802,42.1955722 86.8212363,42.3315464 86.4317074,42.4281078 C86.584314,42.8660827 86.7026519,43.1441893 86.7859815,43.2619351 L86.9627488,43.5543289 C87.2758511,43.4634331 87.7494493,43.3528309 88.3813244,43.2205516 M87.1303941,48.4757572 C86.9911006,48.5075337 86.7822835,48.3779641 86.5044359,48.0863093 C86.2332449,47.8146073 86.0387269,47.5264011 85.920389,47.2204592 C85.8018046,46.9155026 85.6376107,46.3718521 85.424849,45.5907395 C85.21332,44.8091342 85.0607134,44.2236076 84.9667827,43.8353915 C84.8721124,43.4466826 84.7665944,43.0904894 84.6489961,42.7668117 C84.5301651,42.4436266 84.5055114,42.2209442 84.5752815,42.0948232 C84.7907551,41.7066071 85.0930098,41.6162039 85.4825388,41.8241065 L86.0969097,42.0637857 C86.3205191,41.5223522 86.5029567,41.060237 86.6459483,40.6779327 C86.7874607,40.2963675 86.8944579,39.9244091 86.9627488,39.5630429 C87.0325188,39.2024157 87.1318734,38.9560856 87.2598262,38.82356 C87.3895048,38.6912808 87.6320976,38.6434927 87.9903163,38.6769936 C88.348535,38.7134505 88.6996041,38.9531296 89.0435236,39.4014503 C89.3876897,39.8497711 89.5176149,40.1227048 89.4340387,40.2192662 L88.9441691,41.0944769 C89.3539141,40.9979155 89.7454154,40.9146559 90.1171936,40.8451908 C90.489958,40.7754794 90.8476837,40.6742378 91.1913567,40.5434365 C91.5357693,40.4114036 91.7495171,40.3414459 91.8333398,40.3338096 C92.0485669,40.3338096 92.3340571,40.4451508 92.6890708,40.6673405 C93.0428519,40.8895303 93.3586661,41.159508 93.6365137,41.4753031 C93.9153474,41.7915909 94.0704194,42.0448182 94.1017296,42.2359704 C94.1325468,42.4266298 94.0886631,42.7027658 93.9708183,43.064132 C93.7555912,43.7102558 93.5566356,44.2280416 93.3766634,44.6167504 C93.1949654,45.0049666 92.7977938,45.6707967 92.1824366,46.6120239 C91.5670795,47.5534974 91.0754841,48.0072374 90.7066643,47.9710269 C90.338091,47.936787 90.0945122,47.8601783 89.9766674,47.7429252 C89.7752464,47.5549754 89.7059694,47.3914122 89.7685899,47.2517431 L89.8832297,46.8980131 C89.4241772,46.9817653 89.1527397,47.0443332 89.0694101,47.0862093 L88.3601222,47.4086553 C88.7015764,47.4855103 88.9860804,47.5818254 89.2153601,47.7003101 C89.4448864,47.8178096 89.6135179,47.9981232 89.7215012,48.236817 C89.828745,48.4757572 89.8965427,48.7639633 89.9251411,49.0965089 L89.9766674,49.8569298 C90.9704592,49.1339511 91.5811322,48.6619827 91.8064673,48.4395466 C92.0327885,48.2173569 92.2901735,47.9520595 92.5791152,47.6424226 C92.8665777,47.3340173 93.0963504,47.1564134 93.2667077,47.1108423 C93.4368185,47.0669955 93.6338018,47.1364606 93.8556854,47.3207155 C94.078062,47.5039851 94.1986188,47.7301161 94.2158764,47.9981232 C94.2326409,48.2646523 94.1821008,48.4782205 94.064749,48.638335 C93.9466576,48.7977106 93.6591951,48.9388577 93.2038407,49.0602984 C92.7492259,49.1810001 92.2921457,49.3470266 91.8333398,49.5549292 L90.6753541,50.0860168 L90.06049,50.3680647 C90.9638027,51.0471967 91.6661875,51.5292646 92.1666583,51.8103272 C92.6668825,52.0923751 93.5206412,52.4926615 94.7262086,53.0146349 C95.9330087,53.5351303 96.879712,53.8041227 97.5677976,53.8218585 C98.2563763,53.8383626 98.6232238,53.9070887 98.6680936,54.0243418 C98.7127169,54.1428266 98.5973374,54.25737 98.3189968,54.3684649 L97.5056702,54.5566611 C97.3244653,54.6184899 97.173831,54.7037201 97.0515485,54.8116127 C96.929759,54.9177809 96.7882466,55.1328271 96.6240528,55.4513318 C96.4605986,55.7718073 96.3109504,55.9898094 96.1765876,56.1090331 C96.0402524,56.2260399 95.7638841,56.26496 95.3464965,56.2220986 C94.8053471,56.1812078 94.2538431,55.9858681 93.69445,55.639528 C93.1348103,55.29171 91.923819,54.3655089 90.06049,52.858708 C90.0873626,53.5380863 90.099936,54.0529161 90.0969776,54.3997488 C90.093033,54.7470742 90.0777476,55.1973656 90.050382,55.7486522 C90.0217837,56.3016632 89.9404264,56.6888941 89.8040912,56.9110838 C89.6689888,57.1325345 89.3931135,57.3778793 88.9759724,57.646379 C88.5585848,57.9129082 88.2045572,58.0281906 87.9114243,57.9941971 C87.5435907,57.9594645 87.3209675,57.8656128 87.2445409,57.7121492 C87.1678678,57.5596708 87.1106711,57.3214697 87.0724579,57.0005016 C87.0349842,56.6763312 86.9612695,56.4122654 86.8540258,56.2078115 C86.7460425,56.0023722 86.5786436,55.7974256 86.3535551,55.5929716 C86.1267408,55.3882714 85.9810372,55.2449073 85.9149652,55.1660816 C85.8491397,55.0852854 85.8301564,55.0175446 85.8582616,54.962613 C85.8856273,54.9071887 86.0180178,54.9167956 86.2534609,54.9938969 L86.8273998,55.3062434 L87.2132307,55.4624167 C87.4568095,55.5668606 87.6094161,55.6067661 87.6725297,55.5875524 C87.7699119,55.5597171 87.8115767,55.414875 87.7972775,55.1554894 C87.7832249,54.8948722 87.793826,54.4761111 87.8290809,53.9001915 C87.8635961,53.3230401 87.8771556,52.7466278 87.8704991,52.1702154 L87.8391889,50.6180897 C87.8256293,50.1384851 87.8063994,49.7362281 87.7817457,49.4091018 C87.7573385,49.0822218 87.7316986,48.8602784 87.7038399,48.7422863 L87.578599,48.2111987 C87.4183497,48.3570261 87.2689481,48.4454586 87.1303941,48.4757572 M85.1489738,51.7440644 C84.578733,51.9430991 84.1482789,52.13031 83.8561321,52.3000314 C83.5632458,52.4704918 83.3317473,52.5589243 83.1574454,52.5665605 C82.9833901,52.5739504 82.8024317,52.479606 82.6155564,52.2847589 C82.4274484,52.0899118 82.3234097,51.8603322 82.3027006,51.5972517 C82.2810053,51.3336785 82.3083709,51.1494237 82.3855371,51.0449797 C82.4548141,50.9471867 82.5625509,50.8769826 82.7094871,50.8370771 C82.8549441,50.7947084 83.1680465,50.7417474 83.6475616,50.6754846 C84.1265836,50.6089755 84.8013562,50.4781742 85.6704002,50.2843125 C86.0032256,49.6448396 86.273677,49.3268275 86.478303,49.3316978 C86.683422,49.3349564 86.8986491,49.4509779 87.1244772,49.6805575 C87.3512916,49.9093981 87.4427569,50.3160891 87.4008456,50.899645 C87.3668234,51.3368808 87.2260506,51.8238754 86.9792668,52.3625992 C86.7327295,52.9005841 86.4176548,53.4688675 86.0342893,54.0672032 C85.6531426,54.663322 85.2946773,55.1429266 84.9611124,55.5102047 C84.6277939,55.8737879 84.1963536,56.2487023 83.6687638,56.6334698 C83.1394482,57.019469 82.6545093,57.2680161 82.2134541,57.3800962 C81.7714127,57.4909448 81.5409003,57.5313429 81.5196981,57.4995663 C81.499482,57.4682824 81.5650609,57.3547242 81.7186537,57.1613551 C81.829842,57.021686 82.1557643,56.5603098 82.6983929,55.7767339 C83.2405285,54.9904483 83.6596419,54.3554094 83.9547471,53.8733415 C84.2503453,53.3907809 84.6489961,52.6801187 85.1489738,51.7440644" id="Fill-9" fill="#AD8E6B"></path>
            </g>
        </g>
    </g>
</svg>