<?xml version="1.0" encoding="UTF-8"?><svg id="Layer_1" xmlns="http://www.w3.org/2000/svg" xmlns:xlink="http://www.w3.org/1999/xlink" viewBox="0 0 238 151.65"><defs><style>.cls-1,.cls-2{fill:none;}.cls-2{stroke:#e78f44;stroke-width:4.12px;}.cls-2,.cls-3{stroke-miterlimit:10;}.cls-4{clip-path:url(#clippath-1);}.cls-3{fill:#231f20;stroke:#d1d3d4;stroke-width:1.29px;}.cls-5{fill:#e78f44;}.cls-6{clip-path:url(#clippath);}</style><clipPath id="clippath"><polygon class="cls-1" points="172.56 19.23 72.46 19.23 15.69 73.31 66.86 131.5 165.66 131.54 222.41 75.39 172.56 19.23"/></clipPath><clipPath id="clippath-1"><rect class="cls-1" width="238" height="151.65"/></clipPath></defs><g class="cls-6"><g class="cls-4"><polygon class="cls-3" points="1.86 1.09 1.86 -17.03 -13.98 -26.1 -29.82 -17.03 -29.82 1.09 -13.98 10.16 1.86 1.09"/><polygon class="cls-3" points="32.82 1.09 32.82 -17.03 16.98 -26.1 1.14 -17.03 1.14 1.09 16.98 10.16 32.82 1.09"/><polygon class="cls-3" points="63.78 1.09 63.78 -17.03 47.94 -26.1 32.1 -17.03 32.1 1.09 47.94 10.16 63.78 1.09"/><polygon class="cls-3" points="94.74 1.09 94.74 -17.03 78.9 -26.1 63.07 -17.03 63.07 1.09 78.9 10.16 94.74 1.09"/><polygon class="cls-3" points="125.7 1.09 125.7 -17.03 109.86 -26.1 94.03 -17.03 94.03 1.09 109.86 10.16 125.7 1.09"/><polygon class="cls-3" points="156.66 1.09 156.66 -17.03 140.82 -26.1 124.99 -17.03 124.99 1.09 140.82 10.16 156.66 1.09"/><polygon class="cls-3" points="187.62 1.09 187.62 -17.03 171.78 -26.1 155.95 -17.03 155.95 1.09 171.78 10.16 187.62 1.09"/><polygon class="cls-3" points="218.58 1.09 218.58 -17.03 202.74 -26.1 186.91 -17.03 186.91 1.09 202.74 10.16 218.58 1.09"/><polygon class="cls-3" points="249.54 1.09 249.54 -17.03 233.7 -26.1 217.87 -17.03 217.87 1.09 233.7 10.16 249.54 1.09"/><polygon class="cls-3" points="17.34 27.93 17.34 9.8 1.5 .74 -14.34 9.8 -14.34 27.93 1.5 36.99 17.34 27.93"/><polygon class="cls-3" points="48.3 27.93 48.3 9.8 32.46 .74 16.62 9.8 16.62 27.93 32.46 36.99 48.3 27.93"/><polygon class="cls-3" points="79.26 27.93 79.26 9.8 63.42 .74 47.59 9.8 47.59 27.93 63.42 36.99 79.26 27.93"/><polygon class="cls-3" points="110.22 27.93 110.22 9.8 94.38 .74 78.55 9.8 78.55 27.93 94.38 36.99 110.22 27.93"/><polygon class="cls-3" points="141.18 27.93 141.18 9.8 125.34 .74 109.51 9.8 109.51 27.93 125.34 36.99 141.18 27.93"/><polygon class="cls-3" points="172.14 27.93 172.14 9.8 156.3 .74 140.47 9.8 140.47 27.93 156.3 36.99 172.14 27.93"/><polygon class="cls-3" points="203.1 27.93 203.1 9.8 187.26 .74 171.43 9.8 171.43 27.93 187.26 36.99 203.1 27.93"/><polygon class="cls-3" points="234.06 27.93 234.06 9.8 218.22 .74 202.39 9.8 202.39 27.93 218.22 36.99 234.06 27.93"/><polygon class="cls-3" points="265.02 27.93 265.02 9.8 249.19 .74 233.35 9.8 233.35 27.93 249.19 36.99 265.02 27.93"/><polygon class="cls-3" points="1.86 54.76 1.86 36.64 -13.98 27.57 -29.82 36.64 -29.82 54.76 -13.98 63.83 1.86 54.76"/><polygon class="cls-3" points="32.82 54.76 32.82 36.64 16.98 27.57 1.14 36.64 1.14 54.76 16.98 63.83 32.82 54.76"/><polygon class="cls-3" points="63.78 54.76 63.78 36.64 47.94 27.57 32.1 36.64 32.1 54.76 47.94 63.83 63.78 54.76"/><polygon class="cls-3" points="94.74 54.76 94.74 36.64 78.9 27.57 63.07 36.64 63.07 54.76 78.9 63.83 94.74 54.76"/><polygon class="cls-3" points="125.7 54.76 125.7 36.64 109.86 27.57 94.03 36.64 94.03 54.76 109.86 63.83 125.7 54.76"/><polygon class="cls-3" points="156.66 54.76 156.66 36.64 140.82 27.57 124.99 36.64 124.99 54.76 140.82 63.83 156.66 54.76"/><polygon class="cls-3" points="187.62 54.76 187.62 36.64 171.78 27.57 155.95 36.64 155.95 54.76 171.78 63.83 187.62 54.76"/><polygon class="cls-3" points="218.58 54.76 218.58 36.64 202.74 27.57 186.91 36.64 186.91 54.76 202.74 63.83 218.58 54.76"/><polygon class="cls-3" points="249.54 54.76 249.54 36.64 233.7 27.57 217.87 36.64 217.87 54.76 233.7 63.83 249.54 54.76"/><polygon class="cls-3" points="17.34 81.6 17.34 63.47 1.5 54.41 -14.34 63.47 -14.34 81.6 1.5 90.66 17.34 81.6"/><polygon class="cls-3" points="48.3 81.6 48.3 63.47 32.46 54.41 16.62 63.47 16.62 81.6 32.46 90.66 48.3 81.6"/><polygon class="cls-3" points="79.26 81.6 79.26 63.47 63.42 54.41 47.59 63.47 47.59 81.6 63.42 90.66 79.26 81.6"/><polygon class="cls-3" points="110.22 81.6 110.22 63.47 94.38 54.41 78.55 63.47 78.55 81.6 94.38 90.66 110.22 81.6"/><polygon class="cls-3" points="141.18 81.6 141.18 63.47 125.34 54.41 109.51 63.47 109.51 81.6 125.34 90.66 141.18 81.6"/><polygon class="cls-3" points="172.14 81.6 172.14 63.47 156.3 54.41 140.47 63.47 140.47 81.6 156.3 90.66 172.14 81.6"/><polygon class="cls-3" points="203.1 81.6 203.1 63.47 187.26 54.41 171.43 63.47 171.43 81.6 187.26 90.66 203.1 81.6"/><polygon class="cls-3" points="234.06 81.6 234.06 63.47 218.22 54.41 202.39 63.47 202.39 81.6 218.22 90.66 234.06 81.6"/><polygon class="cls-3" points="265.02 81.6 265.02 63.47 249.19 54.41 233.35 63.47 233.35 81.6 249.19 90.66 265.02 81.6"/><polygon class="cls-3" points="1.86 108.43 1.86 90.3 -13.98 81.24 -29.82 90.3 -29.82 108.43 -13.98 117.49 1.86 108.43"/><polygon class="cls-3" points="32.82 108.43 32.82 90.3 16.98 81.24 1.14 90.3 1.14 108.43 16.98 117.49 32.82 108.43"/><polygon class="cls-3" points="63.78 108.43 63.78 90.3 47.94 81.24 32.1 90.3 32.1 108.43 47.94 117.49 63.78 108.43"/><polygon class="cls-3" points="94.74 108.43 94.74 90.3 78.9 81.24 63.07 90.3 63.07 108.43 78.9 117.49 94.74 108.43"/><polygon class="cls-3" points="125.7 108.43 125.7 90.3 109.86 81.24 94.03 90.3 94.03 108.43 109.86 117.49 125.7 108.43"/><polygon class="cls-3" points="156.66 108.43 156.66 90.3 140.82 81.24 124.99 90.3 124.99 108.43 140.82 117.49 156.66 108.43"/><polygon class="cls-3" points="187.62 108.43 187.62 90.3 171.78 81.24 155.95 90.3 155.95 108.43 171.78 117.49 187.62 108.43"/><polygon class="cls-3" points="218.58 108.43 218.58 90.3 202.74 81.24 186.91 90.3 186.91 108.43 202.74 117.49 218.58 108.43"/><polygon class="cls-3" points="249.54 108.43 249.54 90.3 233.7 81.24 217.87 90.3 217.87 108.43 233.7 117.49 249.54 108.43"/><polygon class="cls-3" points="17.34 135.26 17.34 117.14 1.5 108.07 -14.34 117.14 -14.34 135.26 1.5 144.33 17.34 135.26"/><polygon class="cls-3" points="48.3 135.26 48.3 117.14 32.46 108.07 16.62 117.14 16.62 135.26 32.46 144.33 48.3 135.26"/><polygon class="cls-3" points="79.26 135.26 79.26 117.14 63.42 108.07 47.59 117.14 47.59 135.26 63.42 144.33 79.26 135.26"/><polygon class="cls-3" points="110.22 135.26 110.22 117.14 94.38 108.07 78.55 117.14 78.55 135.26 94.38 144.33 110.22 135.26"/><polygon class="cls-3" points="141.18 135.26 141.18 117.14 125.34 108.07 109.51 117.14 109.51 135.26 125.34 144.33 141.18 135.26"/><polygon class="cls-3" points="172.14 135.26 172.14 117.14 156.3 108.07 140.47 117.14 140.47 135.26 156.3 144.33 172.14 135.26"/><polygon class="cls-3" points="203.1 135.26 203.1 117.14 187.26 108.07 171.43 117.14 171.43 135.26 187.26 144.33 203.1 135.26"/><polygon class="cls-3" points="234.06 135.26 234.06 117.14 218.22 108.07 202.39 117.14 202.39 135.26 218.22 144.33 234.06 135.26"/><polygon class="cls-3" points="265.02 135.26 265.02 117.14 249.19 108.07 233.35 117.14 233.35 135.26 249.19 144.33 265.02 135.26"/><polygon class="cls-3" points="1.86 162.1 1.86 143.97 -13.98 134.91 -29.82 143.97 -29.82 162.1 -13.98 171.16 1.86 162.1"/><polygon class="cls-3" points="32.82 162.1 32.82 143.97 16.98 134.91 1.14 143.97 1.14 162.1 16.98 171.16 32.82 162.1"/><polygon class="cls-3" points="63.78 162.1 63.78 143.97 47.94 134.91 32.1 143.97 32.1 162.1 47.94 171.16 63.78 162.1"/><polygon class="cls-3" points="94.74 162.1 94.74 143.97 78.9 134.91 63.07 143.97 63.07 162.1 78.9 171.16 94.74 162.1"/><polygon class="cls-3" points="125.7 162.1 125.7 143.97 109.86 134.91 94.03 143.97 94.03 162.1 109.86 171.16 125.7 162.1"/><polygon class="cls-3" points="156.66 162.1 156.66 143.97 140.82 134.91 124.99 143.97 124.99 162.1 140.82 171.16 156.66 162.1"/><polygon class="cls-3" points="187.62 162.1 187.62 143.97 171.78 134.91 155.95 143.97 155.95 162.1 171.78 171.16 187.62 162.1"/><polygon class="cls-3" points="218.58 162.1 218.58 143.97 202.74 134.91 186.91 143.97 186.91 162.1 202.74 171.16 218.58 162.1"/><polygon class="cls-3" points="249.54 162.1 249.54 143.97 233.7 134.91 217.87 143.97 217.87 162.1 233.7 171.16 249.54 162.1"/></g></g><polyline class="cls-2" points="159.82 7.26 172.56 19.23 72.46 19.23 15.69 73.31 66.86 131.5 79.49 120.61"/><line class="cls-2" x1="172.56" y1="19.27" x2="159.13" y2="29.54"/><polyline class="cls-2" points="66.86 131.54 165.66 131.54 222.41 75.39 172.56 19.27"/><line class="cls-2" x1="66.86" y1="131.5" x2="78.67" y2="143.08"/><path class="cls-5" d="M115.81,82.54c0,1.57-1.23,2.85-2.74,2.85h-2.74l2.74,2.85h2.74v2.85h-3.29c-.38,0-.72-.14-.99-.43l-5.07-5.28h-1.61v5.71h-2.74v-14.27h10.96c1.51,0,2.74,1.28,2.74,2.85v2.85ZM104.86,79.69v2.85h8.22v-2.85h-8.22Z"/><path class="cls-5" d="M128.14,76.83c1.51,0,2.74,1.28,2.74,2.85v11.42h-2.74v-5.71h-8.22v5.71h-2.74v-11.42c0-1.57,1.23-2.85,2.74-2.85h8.22ZM119.92,82.54h8.22v-2.85h-8.22v2.85Z"/><path class="cls-5" d="M134.98,91.1c-1.51,0-2.74-1.28-2.74-2.85v-8.56c0-1.57,1.23-2.85,2.74-2.85h10.96v2.85h-10.96v8.56h10.96v2.85h-10.96Z"/><path class="cls-5" d="M147.31,91.1v-2.85h5.48v-8.56h-5.48v-2.85h13.7v2.85h-5.48v8.56h5.48v2.85h-13.7Z"/><path class="cls-5" d="M162.37,91.1v-12.84c0-.79.62-1.43,1.37-1.43.38,0,.72.16.98.43l8.61,8.97v-9.4h2.74v12.84c0,.78-.62,1.43-1.37,1.43-.38,0-.72-.16-.98-.43l-8.61-8.97v9.4h-2.74Z"/><path class="cls-5" d="M191.13,79.69h-10.96v8.56h8.22v-2.85h-5.48v-2.85h8.22v5.71c0,1.55-1.21,2.85-2.74,2.85h-8.22c-1.51,0-2.74-1.28-2.74-2.85v-8.56c0-1.57,1.23-2.85,2.74-2.85h10.96v2.85Z"/><path class="cls-5" d="M51.09,62.12v2.85c0,1.57-1.23,2.85-2.74,2.85h-8.22v5.71h-2.74v-14.27h10.96c1.51,0,2.74,1.28,2.74,2.85ZM48.35,64.97v-2.85h-8.22v2.85h8.22Z"/><path class="cls-5" d="M63.41,59.26c1.51,0,2.74,1.28,2.74,2.85v11.42h-2.74v-5.71h-8.22v5.71h-2.74v-11.42c0-1.57,1.23-2.85,2.74-2.85h8.22ZM55.19,64.97h8.22v-2.85h-8.22v2.85Z"/><path class="cls-5" d="M67.52,73.53v-12.84c0-.79.62-1.43,1.37-1.43.38,0,.72.16.98.43l8.61,8.97v-9.4h2.74v12.84c0,.78-.62,1.43-1.37,1.43-.38,0-.72-.16-.98-.43l-8.61-8.97v9.4h-2.74Z"/><path class="cls-5" d="M82.58,73.53v-14.27h10.96c1.51,0,2.74,1.28,2.74,2.85v8.56c0,1.57-1.23,2.85-2.74,2.85h-10.96ZM85.32,70.68h8.22v-8.56h-8.22v8.56Z"/><path class="cls-5" d="M100.38,73.53c-1.51,0-2.74-1.28-2.74-2.85v-11.42h2.74v11.42h8.22v-11.42h2.74v11.42c0,1.57-1.23,2.85-2.74,2.85h-8.22Z"/><path class="cls-5" d="M126.4,64.97c0,1.57-1.23,2.85-2.74,2.85h-2.74l2.74,2.85h2.74v2.85h-3.29c-.38,0-.72-.14-.99-.43l-5.07-5.28h-1.61v5.71h-2.74v-14.27h10.96c1.51,0,2.74,1.28,2.74,2.85v2.85ZM115.45,62.12v2.85h8.22v-2.85h-8.22Z"/><path class="cls-5" d="M138.73,59.26c1.51,0,2.74,1.28,2.74,2.85v11.42h-2.74v-5.71h-8.22v5.71h-2.74v-11.42c0-1.57,1.23-2.85,2.74-2.85h8.22ZM130.51,64.97h8.22v-2.85h-8.22v2.85Z"/><path class="cls-5" d="M142.83,73.53v-12.84c0-.79.62-1.43,1.37-1.43.38,0,.72.16.98.43l8.61,8.97v-9.4h2.74v12.84c0,.78-.62,1.43-1.37,1.43-.38,0-.72-.16-.98-.43l-8.61-8.97v9.4h-2.74Z"/><path class="cls-5" d="M160.64,73.53c-1.51,0-2.74-1.28-2.74-2.85v-8.56c0-1.57,1.23-2.85,2.74-2.85h10.96v2.85h-10.96v8.56h10.96v2.85h-10.96Z"/><path class="cls-5" d="M186.66,62.12h-10.96v2.85h10.96v2.85h-10.96v2.85h10.96v2.85h-10.96c-1.51,0-2.74-1.28-2.74-2.85v-8.56c0-1.57,1.23-2.85,2.74-2.85h10.96v2.85Z"/></svg>